# Blender 5.0.1
# www.blender.org
mtllib Apple-C.mtl
o Cube.005
v -0.010164 0.012020 -10.349475
v -0.036807 0.002937 -10.374949
v -0.060296 0.008308 -10.399130
v -0.081823 0.024421 -10.422729
v -0.102834 0.053513 -10.447480
v -0.118385 0.088425 -10.467522
v -0.124750 0.122888 -10.478318
v -0.129180 0.162723 -10.487871
v -0.128697 0.194949 -10.491531
v -0.123335 0.243735 -10.492444
v -0.109276 0.284465 -10.483623
v -0.088425 0.317138 -10.466973
v -0.060148 0.341755 -10.441862
v -0.027737 0.356515 -10.411349
v 0.011371 0.346934 -10.371009
v 0.026059 0.008753 -10.385697
v 0.049894 0.014146 -10.409532
v 0.060784 0.025750 -10.420422
v 0.083665 0.053032 -10.443303
v 0.101461 0.088088 -10.461100
v 0.110042 0.122694 -10.469680
v 0.117033 0.162693 -10.476671
v 0.118622 0.195051 -10.478260
v 0.116397 0.244039 -10.476036
v 0.104957 0.284937 -10.464595
v 0.086207 0.317745 -10.445846
v 0.059512 0.334996 -10.419150
v 0.039724 0.349424 -10.399363
v 0.000000 0.003031 -10.396491
v 0.000000 0.023820 -10.462108
v 0.000000 0.053032 -10.494467
v 0.000000 0.088088 -10.519634
v 0.000000 0.162693 -10.541656
v 0.000000 0.195051 -10.543903
v 0.000000 0.244039 -10.540757
v 0.000000 0.317745 -10.498062
v 0.000000 0.342464 -10.460310
v 0.000000 0.355948 -10.415816
v 0.036853 0.003031 -10.359638
v 0.070560 0.007640 -10.359638
v 0.102469 0.023820 -10.359638
v 0.134828 0.053032 -10.359638
v 0.159996 0.088088 -10.359638
v 0.182018 0.162693 -10.359638
v 0.184265 0.195051 -10.359638
v 0.181119 0.244039 -10.359638
v 0.164940 0.284937 -10.359638
v 0.138424 0.317745 -10.359638
v 0.100672 0.342464 -10.359638
v 0.056178 0.355948 -10.359638
v 0.015311 0.002937 -10.322831
v 0.039491 0.008308 -10.299342
v 0.063091 0.024421 -10.277815
v 0.087842 0.053513 -10.256804
v 0.107883 0.088425 -10.241253
v 0.118680 0.122888 -10.234888
v 0.128233 0.162723 -10.230458
v 0.131894 0.194949 -10.230942
v 0.132806 0.243735 -10.236303
v 0.123984 0.284465 -10.250362
v 0.107335 0.317138 -10.271213
v 0.082223 0.341755 -10.299490
v 0.051711 0.356515 -10.331901
v 0.172131 0.122694 -10.359638
v 0.000000 0.007640 -10.430199
v 0.000000 0.122694 -10.531769
v 0.000000 0.284937 -10.524578
v 0.001598 0.194949 -10.361237
vn -0.0520 0.9973 0.0520
vn 0.1099 0.9890 -0.0992
vn 0.1782 0.9677 -0.1782
vn 0.0992 0.9890 -0.1099
vn -0.0447 0.9846 -0.1692
vn 0.4328 0.8977 -0.0820
vn 0.3404 0.8765 -0.3404
vn 0.0820 0.8977 -0.4328
vn -0.1556 0.8660 -0.4752
vn 0.0674 0.7336 -0.6762
vn -0.2494 0.6805 -0.6890
vn 0.4846 0.7282 -0.4846
vn 0.6762 0.7336 -0.0674
vn 0.8710 0.4867 -0.0661
vn 0.6223 0.4748 -0.6223
vn 0.0661 0.4867 -0.8710
vn -0.3184 0.4389 -0.8402
vn 0.0627 0.2047 -0.9768
vn -0.3606 0.1707 -0.9170
vn 0.6922 0.2040 -0.6922
vn 0.9768 0.2047 -0.0627
vn 0.9982 -0.0124 -0.0594
vn 0.7071 -0.0025 -0.7071
vn 0.0594 -0.0124 -0.9982
vn -0.3760 -0.0233 -0.9263
vn 0.0551 -0.1644 -0.9849
vn -0.3799 -0.1618 -0.9108
vn 0.6995 -0.1462 -0.6995
vn 0.9849 -0.1644 -0.0551
vn 0.9533 -0.2975 -0.0527
vn 0.6806 -0.2710 -0.6806
vn 0.0527 -0.2975 -0.9533
vn -0.3781 -0.2804 -0.8823
vn 0.0487 -0.4632 -0.8849
vn -0.3631 -0.4393 -0.8217
vn 0.6371 -0.4338 -0.6371
vn 0.8849 -0.4632 -0.0487
vn 0.7393 -0.6719 -0.0457
vn 0.5432 -0.6401 -0.5432
vn 0.0457 -0.6719 -0.7393
vn -0.3226 -0.6361 -0.7010
vn 0.0478 -0.8162 -0.5758
vn -0.2662 -0.7946 -0.5457
vn 0.4441 -0.7781 -0.4441
vn 0.5758 -0.8162 -0.0478
vn 0.3318 -0.9419 -0.0520
vn 0.3029 -0.9036 -0.3029
vn 0.0520 -0.9419 -0.3318
vn -0.1639 -0.9362 -0.3109
vn 0.0790 -0.9969 0.0014
vn 0.0065 -0.9999 0.0091
vn 0.0734 -0.9946 -0.0734
vn -0.0014 -0.9969 -0.0790
vn -0.0445 -0.9980 0.0445
vn 0.1692 0.9846 0.0447
vn 0.4752 0.8660 0.1556
vn 0.6890 0.6805 0.2494
vn 0.8402 0.4389 0.3184
vn 0.9170 0.1707 0.3606
vn 0.9263 -0.0233 0.3760
vn 0.9108 -0.1618 0.3799
vn 0.8823 -0.2804 0.3781
vn 0.8217 -0.4393 0.3631
vn 0.7010 -0.6361 0.3226
vn 0.5457 -0.7946 0.2662
vn 0.3109 -0.9362 0.1639
vn -0.0091 -0.9999 -0.0065
vn -0.7042 0.0906 0.7042
vt 0.057699 0.749201
vt 0.074692 0.732861
vt 0.080944 0.749654
vt 0.034455 0.748749
vt 0.041365 0.732213
vt 0.057002 0.696287
vt 0.080435 0.678475
vt 0.090934 0.670905
vt 0.023225 0.671009
vt 0.034031 0.678256
vt 0.057178 0.674901
vt 0.096875 0.660717
vt 0.057123 0.660717
vt 0.097137 0.647939
vt 0.057123 0.647939
vt 0.108554 0.647939
vt 0.097832 0.632633
vt 0.109537 0.632633
vt 0.057123 0.632633
vt 0.097336 0.622523
vt 0.057123 0.622523
vt 0.108835 0.622523
vt 0.095151 0.610025
vt 0.105745 0.610025
vt 0.057123 0.610025
vt 0.095632 0.599213
vt 0.057123 0.599213
vt 0.086910 0.588260
vt 0.102124 0.587342
vt 0.057123 0.588260
vt 0.102043 0.552097
vt 0.060562 0.574004
vt 0.064885 0.532150
vt 0.028154 0.551773
vt 0.043071 0.535831
vt 0.061639 0.540815
vt 0.030508 0.513050
vt 0.079270 0.533769
vt 0.089095 0.512631
vt 0.059689 0.511988
vt 0.735979 0.572575
vt 0.734145 0.637274
vt 0.660823 0.632812
vt 0.664205 0.615211
vt 0.669327 0.598094
vt 0.679296 0.583948
vt 0.694515 0.573265
vt 0.712925 0.567158
vt 0.722142 0.707973
vt 0.661080 0.648283
vt 0.665062 0.659658
vt 0.670156 0.673725
vt 0.679771 0.687029
vt 0.693038 0.698988
vt 0.735554 0.569547
vt 0.711875 0.565071
vt 0.693717 0.572142
vt 0.679170 0.583416
vt 0.669875 0.597687
vt 0.665194 0.614600
vt 0.694758 0.701133
vt 0.680860 0.688949
vt 0.670716 0.675116
vt 0.665453 0.660376
vt 0.661399 0.648147
s 1
usemtl Material
f 15/1/1 50/2/2 28/3/3
f 15/1/1 28/4/3 38/5/4
f 15/1/1 38/5/4 14/6/5
f 28/3/3 50/2/2 49/7/6 27/8/7
f 28/4/3 27/9/7 37/10/8 38/5/4
f 14/6/5 38/5/4 37/10/8 13/11/9
f 13/11/9 37/7/8 36/8/10 12/11/11
f 27/7/7 26/8/12 36/8/10 37/7/8
f 27/7/7 49/7/6 48/8/13 26/8/12
f 26/8/12 48/8/13 47/12/14 25/12/15
f 26/8/12 25/12/15 67/12/16 36/8/10
f 12/11/11 36/8/10 67/12/16 11/13/17
f 11/13/17 67/12/16 35/14/18 10/15/19
f 25/12/15 24/16/20 35/14/18 67/12/16
f 25/12/15 47/12/14 46/14/21 24/16/20
f 24/16/20 46/14/21 45/17/22 23/18/23
f 24/16/20 23/18/23 34/17/24 35/14/18
f 10/15/19 35/14/18 34/17/24 9/19/25
f 9/19/25 34/17/24 33/20/26 8/21/27
f 23/18/23 22/22/28 33/20/26 34/17/24
f 23/18/23 45/17/22 44/20/29 22/22/28
f 22/22/28 44/20/29 64/23/30 21/24/31
f 22/22/28 21/24/31 66/23/32 33/20/26
f 8/21/27 33/20/26 66/23/32 7/25/33
f 7/25/33 66/23/32 32/26/34 6/27/35
f 21/24/31 20/26/36 32/26/34 66/23/32
f 21/24/31 64/23/30 43/26/37 20/26/36
f 20/26/36 43/26/37 42/28/38 19/29/39
f 20/26/36 19/29/39 31/28/40 32/26/34
f 6/27/35 32/26/34 31/28/40 5/30/41
f 5/30/41 31/28/40 30/31/42 4/32/43
f 19/29/39 18/31/44 30/31/42 31/28/40
f 19/29/39 42/28/38 41/31/45 18/31/44
f 18/31/44 41/31/45 40/31/46 17/33/47
f 18/31/44 17/33/47 65/31/48 30/31/42
f 4/32/43 30/31/42 65/31/48 3/32/49
f 3/32/49 65/34/48 29/35/50 2/36/51
f 17/33/47 16/37/52 29/35/50 65/34/48
f 17/33/47 40/31/46 39/38/53 16/39/52
f 39/38/53 1/40/54 16/39/52
f 29/35/50 16/37/52 1/40/54
f 2/36/51 29/35/50 1/40/54
f 15/1/1 63/6/55 50/2/2
f 63/6/55 62/11/56 49/7/6 50/2/2
f 62/11/56 61/11/57 48/8/13 49/7/6
f 61/11/57 60/13/58 47/12/14 48/8/13
f 60/13/58 59/15/59 46/14/21 47/12/14
f 59/15/59 58/19/60 45/17/22 46/14/21
f 58/19/60 57/21/61 44/20/29 45/17/22
f 57/21/61 56/25/62 64/23/30 44/20/29
f 56/25/62 55/27/63 43/26/37 64/23/30
f 55/27/63 54/30/64 42/28/38 43/26/37
f 54/30/64 53/32/65 41/31/45 42/28/38
f 53/32/65 52/32/66 40/31/46 41/31/45
f 52/32/66 51/36/67 39/38/53 40/31/46
f 51/36/67 1/40/54 39/38/53
f 15/41/68 68/42/68 58/43/68 59/44/68 60/45/68 61/46/68 62/47/68 63/48/68
f 2/49/68 1/49/68 68/42/68 9/43/68 8/50/68 7/51/68 6/52/68 5/53/68 4/54/68 3/49/68
f 9/43/68 68/42/68 15/55/68 14/56/68 13/57/68 12/58/68 11/59/68 10/60/68
f 58/43/68 68/42/68 1/49/68 51/49/68 52/49/68 53/61/68 54/62/68 55/63/68 56/64/68 57/65/68
