# Blender 5.0.1
# www.blender.org
mtllib Banana-C.mtl
o Cube.007
v 0.000000 0.103195 -13.419952
v -0.000000 0.128018 -13.335651
v -0.000000 0.176643 -13.269103
v -0.000000 0.229446 -13.223872
v -0.000000 0.277230 -13.182036
v -0.000000 0.322638 -13.181515
v -0.000000 0.355218 -13.182685
v -0.000000 0.365668 -13.137572
v -0.000000 0.325118 -13.144747
v -0.000000 0.287815 -13.148299
v -0.000000 0.227792 -13.128422
v -0.000000 0.163489 -13.138268
v -0.000000 0.093223 -13.185803
v -0.000000 0.044243 -13.249663
v 0.000000 0.015217 -13.412081
v -0.009937 0.103195 -13.419952
v -0.013654 0.128018 -13.335651
v -0.013654 0.176643 -13.269103
v -0.013654 0.229446 -13.223872
v -0.013654 0.277230 -13.182036
v -0.016110 0.322598 -13.181212
v -0.022265 0.355218 -13.182685
v -0.022265 0.365668 -13.137572
v -0.016110 0.325078 -13.144444
v -0.013654 0.287815 -13.148299
v -0.013654 0.227792 -13.128422
v -0.013654 0.163489 -13.138268
v -0.013654 0.093223 -13.185803
v -0.013654 0.044243 -13.249663
v -0.008629 0.015217 -13.412081
v -0.000000 0.375956 -13.164895
v -0.000000 0.377049 -13.150936
v -0.014952 0.377049 -13.150936
v -0.013871 0.375956 -13.164895
v -0.014177 0.279845 -13.173702
v -0.019495 0.260216 -13.178129
v -0.033650 0.216845 -13.202223
v -0.051369 0.145939 -13.251999
v -0.053674 0.086089 -13.322978
v -0.034760 0.094751 -13.419197
v -0.010533 0.284391 -13.159213
v -0.018332 0.248250 -13.149893
v -0.027635 0.190754 -13.145838
v -0.038488 0.109383 -13.197606
v -0.039461 0.053145 -13.268108
v -0.024507 0.027696 -13.413198
v 0.009937 0.103195 -13.419952
v 0.013654 0.128018 -13.335651
v 0.013654 0.176643 -13.269103
v 0.013654 0.229446 -13.223872
v 0.013654 0.277230 -13.182036
v 0.016110 0.322598 -13.181212
v 0.022265 0.355218 -13.182685
v 0.022265 0.365668 -13.137572
v 0.016110 0.325078 -13.144444
v 0.013654 0.287815 -13.148299
v 0.013654 0.227792 -13.128422
v 0.013654 0.163489 -13.138268
v 0.013654 0.093223 -13.185803
v 0.013654 0.044243 -13.249663
v 0.008629 0.015217 -13.412081
v 0.014952 0.377049 -13.150936
v 0.013871 0.375956 -13.164895
v 0.014177 0.279845 -13.173702
v 0.019495 0.260216 -13.178129
v 0.033650 0.216845 -13.202223
v 0.051369 0.145939 -13.251999
v 0.053674 0.086089 -13.322978
v 0.034760 0.094751 -13.419197
v 0.010533 0.284391 -13.159213
v 0.018332 0.248250 -13.149893
v 0.027635 0.190754 -13.145838
v 0.038488 0.109383 -13.197606
v 0.039461 0.053145 -13.268108
v 0.024507 0.027696 -13.413198
v 0.000000 0.110392 -13.420596
v -0.011137 0.110392 -13.420596
v -0.011137 0.008020 -13.411437
v 0.000000 0.008020 -13.411437
v -0.031220 0.023806 -13.412849
v -0.042813 0.099617 -13.419632
v 0.011137 0.110392 -13.420596
v 0.011137 0.008020 -13.411437
v 0.031220 0.023806 -13.412849
v 0.042813 0.099617 -13.419632
v 0.000000 0.103195 -13.419952
v 0.000000 0.015217 -13.412081
v -0.009937 0.103195 -13.419952
v -0.008629 0.015217 -13.412081
v -0.034760 0.094751 -13.419197
v -0.024507 0.027696 -13.413198
v 0.009937 0.103195 -13.419952
v 0.008629 0.015217 -13.412081
v 0.034760 0.094751 -13.419197
v 0.024507 0.027696 -13.413198
v 0.000000 0.110392 -13.420596
v -0.011137 0.110392 -13.420596
v -0.011137 0.008020 -13.411437
v 0.000000 0.008020 -13.411437
v -0.031220 0.023806 -13.412849
v -0.042813 0.099617 -13.419632
v 0.011137 0.110392 -13.420596
v 0.011137 0.008020 -13.411437
v 0.031220 0.023806 -13.412849
v 0.042813 0.099617 -13.419632
vn -0.0000 0.9791 -0.2032
vn 0.0079 -0.1700 0.9854
vn -0.0000 0.8074 -0.5900
vn 0.0102 -0.0985 0.9951
vn -0.0000 0.6506 -0.7595
vn -0.0000 0.3144 0.9493
vn -0.0000 0.6587 -0.7524
vn -0.0000 -0.1514 0.9885
vn -0.0102 0.0145 -0.9998
vn -0.0000 -0.5603 0.8283
vn -0.0078 -0.0412 -0.9991
vn -0.0000 -0.7935 0.6086
vn -0.0000 -0.9758 0.2185
vn -0.9964 -0.0831 0.0184
vn -0.9855 -0.1677 0.0265
vn -0.0000 0.9969 -0.0781
vn -0.0000 0.6511 -0.7590
vn -0.0000 0.7613 0.6484
vn -0.8878 0.4484 -0.1039
vn -0.8342 0.4023 -0.3771
vn -0.9452 0.2899 -0.1503
vn -0.9670 0.1915 0.1681
vn -0.9595 0.2388 0.1494
vn -0.9879 0.1125 0.1067
vn -0.8140 0.0346 0.5799
vn -0.7033 -0.3535 0.6167
vn -0.9791 0.0525 0.1967
vn -0.7087 0.4908 -0.5069
vn -0.6979 0.5680 -0.4363
vn -0.9776 -0.1509 0.1465
vn -0.6044 -0.6251 0.4939
vn -0.5207 -0.8384 0.1611
vn -0.9632 -0.2620 -0.0591
vn -0.5988 0.7985 -0.0621
vn -0.0079 -0.1700 0.9854
vn -0.0102 -0.0985 0.9951
vn 0.0102 0.0145 -0.9998
vn 0.0078 -0.0412 -0.9991
vn 0.9964 -0.0831 0.0184
vn 0.9855 -0.1677 0.0265
vn 0.8878 0.4484 -0.1039
vn 0.8342 0.4023 -0.3771
vn 0.9452 0.2899 -0.1503
vn 0.9670 0.1915 0.1681
vn 0.9595 0.2388 0.1494
vn 0.9879 0.1125 0.1067
vn 0.8140 0.0346 0.5799
vn 0.7033 -0.3535 0.6167
vn 0.9791 0.0525 0.1967
vn 0.7087 0.4908 -0.5069
vn 0.6979 0.5680 -0.4363
vn 0.9776 -0.1509 0.1465
vn 0.6044 -0.6251 0.4939
vn 0.5207 -0.8384 0.1611
vn 0.9632 -0.2620 -0.0591
vn 0.5988 0.7985 -0.0621
vn -0.0000 -0.0891 -0.9960
vt 0.343060 0.684645
vt 0.342563 0.656160
vt 0.348976 0.656296
vt 0.349523 0.684772
vt 0.285640 0.714648
vt 0.287075 0.736438
vt 0.297662 0.735882
vt 0.292993 0.714316
vt 0.283090 0.611994
vt 0.287804 0.550662
vt 0.293938 0.550693
vt 0.289157 0.612019
vt 0.282796 0.690650
vt 0.288898 0.690668
vt 0.283061 0.645734
vt 0.289218 0.645757
vt 0.282251 0.670574
vt 0.287867 0.670592
vt 0.283025 0.677377
vt 0.289261 0.677397
vt 0.281968 0.644666
vt 0.287279 0.644685
vt 0.283372 0.698551
vt 0.291121 0.698630
vt 0.281932 0.609561
vt 0.287100 0.609583
vt 0.286582 0.720528
vt 0.297557 0.719955
vt 0.286577 0.554776
vt 0.291779 0.554801
vt 0.340997 0.698661
vt 0.341813 0.742253
vt 0.347411 0.742360
vt 0.346461 0.698770
vt 0.289407 0.680729
vt 0.287609 0.686433
vt 0.294789 0.739133
vt 0.287474 0.739518
vt 0.287408 0.735770
vt 0.294290 0.735408
vt 0.297430 0.647053
vt 0.291566 0.671111
vt 0.293285 0.652377
vt 0.290404 0.673423
vt 0.297038 0.611261
vt 0.304448 0.606948
vt 0.310141 0.542666
vt 0.302159 0.551569
vt 0.358456 0.733489
vt 0.356880 0.690410
vt 0.365417 0.658540
vt 0.366454 0.684785
vt 0.336597 0.684517
vt 0.336149 0.656025
vt 0.278285 0.715084
vt 0.276484 0.736995
vt 0.277021 0.611968
vt 0.281668 0.550632
vt 0.276692 0.690633
vt 0.276902 0.645711
vt 0.276634 0.670556
vt 0.276789 0.677358
vt 0.276655 0.644646
vt 0.275615 0.698587
vt 0.276764 0.609538
vt 0.275603 0.721102
vt 0.281373 0.554751
vt 0.335532 0.698551
vt 0.336213 0.742145
vt 0.278128 0.686405
vt 0.276527 0.680690
vt 0.280157 0.739903
vt 0.280524 0.736131
vt 0.274167 0.671054
vt 0.268123 0.646946
vt 0.274687 0.673373
vt 0.271050 0.652298
vt 0.267151 0.611133
vt 0.260997 0.606758
vt 0.264622 0.542434
vt 0.271346 0.551417
vt 0.325526 0.689777
vt 0.325526 0.732853
vt 0.318873 0.657559
vt 0.318780 0.683843
vt 0.424689 0.609818
vt 0.434949 0.610142
vt 0.445240 0.610476
vt 0.471328 0.620294
vt 0.462695 0.690635
vt 0.446748 0.702940
vt 0.437913 0.702534
vt 0.429093 0.702141
vt 0.412476 0.688457
vt 0.399503 0.617913
vt 0.441296 0.525979
vt 0.439277 0.525916
vt 0.438975 0.524417
vt 0.441238 0.524488
vt 0.440144 0.544076
vt 0.441879 0.544153
vt 0.441919 0.545633
vt 0.439683 0.545530
vt 0.436875 0.541384
vt 0.435554 0.542133
vt 0.434323 0.527508
vt 0.432661 0.526455
vt 0.443320 0.526045
vt 0.443508 0.524558
vt 0.443617 0.544233
vt 0.444162 0.545737
vt 0.446753 0.541812
vt 0.448132 0.542685
vt 0.448451 0.527976
vt 0.450068 0.527026
s 0
usemtl Material
f 2/1/1 76/2/1 77/3/1 17/4/1
f 9/5/2 8/6/2 23/7/2 24/8/2
f 3/9/3 2/10/3 17/11/3 18/12/3
f 10/13/4 9/5/4 24/8/4 25/14/4
f 4/15/5 3/9/5 18/12/5 19/16/5
f 11/17/6 10/13/6 25/14/6 26/18/6
f 5/19/7 4/15/7 19/16/7 20/20/7
f 12/21/8 11/17/8 26/18/8 27/22/8
f 6/23/9 5/19/9 20/20/9 21/24/9
f 13/25/10 12/21/10 27/22/10 28/26/10
f 7/27/11 6/23/11 21/24/11 22/28/11
f 14/29/12 13/25/12 28/26/12 29/30/12
f 79/31/13 14/32/13 29/33/13 78/34/13
f 20/20/14 35/35/14 41/36/14 25/14/14 24/8/14 21/24/14
f 21/24/15 24/8/15 23/7/15 22/28/15
f 33/37/16 32/38/16 31/39/16 34/40/16
f 31/39/17 7/27/17 22/28/17 34/40/17
f 8/6/18 32/38/18 33/37/18 23/7/18
f 33/37/19 34/40/19 22/28/19 23/7/19
f 19/16/20 37/41/20 36/42/20 20/20/20
f 35/35/21 20/20/21 36/42/21
f 37/41/22 43/43/22 42/44/22 36/42/22
f 36/42/23 42/44/23 41/36/23 35/35/23
f 26/18/24 25/14/24 41/36/24 42/44/24
f 27/22/25 26/18/25 42/44/25 43/43/25
f 28/26/26 27/22/26 43/43/26 44/45/26
f 38/46/27 44/45/27 43/43/27 37/41/27
f 18/12/28 38/46/28 37/41/28 19/16/28
f 17/11/29 39/47/29 38/46/29 18/12/29
f 39/47/30 45/48/30 44/45/30 38/46/30
f 29/30/31 28/26/31 44/45/31 45/48/31
f 78/34/32 29/33/32 45/49/32 80/50/32
f 81/51/33 80/50/33 45/49/33 39/52/33
f 77/3/34 81/51/34 39/52/34 17/4/34
f 2/1/1 48/53/1 82/54/1 76/2/1
f 9/5/35 55/55/35 54/56/35 8/6/35
f 3/9/3 49/57/3 48/58/3 2/10/3
f 10/13/36 56/59/36 55/55/36 9/5/36
f 4/15/5 50/60/5 49/57/5 3/9/5
f 11/17/6 57/61/6 56/59/6 10/13/6
f 5/19/7 51/62/7 50/60/7 4/15/7
f 12/21/8 58/63/8 57/61/8 11/17/8
f 6/23/37 52/64/37 51/62/37 5/19/37
f 13/25/10 59/65/10 58/63/10 12/21/10
f 7/27/38 53/66/38 52/64/38 6/23/38
f 14/29/12 60/67/12 59/65/12 13/25/12
f 79/31/13 83/68/13 60/69/13 14/32/13
f 51/62/39 52/64/39 55/55/39 56/59/39 70/70/39 64/71/39
f 52/64/40 53/66/40 54/56/40 55/55/40
f 62/72/16 63/73/16 31/39/16 32/38/16
f 31/39/17 63/73/17 53/66/17 7/27/17
f 8/6/18 54/56/18 62/72/18 32/38/18
f 62/72/41 54/56/41 53/66/41 63/73/41
f 50/60/42 51/62/42 65/74/42 66/75/42
f 64/71/43 65/74/43 51/62/43
f 66/75/44 65/74/44 71/76/44 72/77/44
f 65/74/45 64/71/45 70/70/45 71/76/45
f 57/61/46 71/76/46 70/70/46 56/59/46
f 58/63/47 72/77/47 71/76/47 57/61/47
f 59/65/48 73/78/48 72/77/48 58/63/48
f 67/79/49 66/75/49 72/77/49 73/78/49
f 49/57/50 50/60/50 66/75/50 67/79/50
f 48/58/51 49/57/51 67/79/51 68/80/51
f 68/80/52 67/79/52 73/78/52 74/81/52
f 60/67/53 74/81/53 73/78/53 59/65/53
f 83/68/54 84/82/54 74/83/54 60/69/54
f 85/84/55 68/85/55 74/83/55 84/82/55
f 82/54/56 48/53/56 68/85/56 85/84/56
f 16/86/57 1/87/57 47/88/57 69/89/57 75/90/57 61/91/57 15/92/57 30/93/57 46/94/57 40/95/57
f 86/96/57 88/97/57 97/98/57 96/99/57
f 89/100/57 87/101/57 99/102/57 98/103/57
f 91/104/57 89/100/57 98/103/57 100/105/57
f 90/106/57 91/104/57 100/105/57 101/107/57
f 88/97/57 90/106/57 101/107/57 97/98/57
f 92/108/57 86/96/57 96/99/57 102/109/57
f 87/101/57 93/110/57 103/111/57 99/102/57
f 93/110/57 95/112/57 104/113/57 103/111/57
f 95/112/57 94/114/57 105/115/57 104/113/57
f 94/114/57 92/108/57 102/109/57 105/115/57
