# Blender 5.0.1
# www.blender.org
mtllib Banana-C2.mtl
o Cube.014
v -0.000000 -0.003950 -13.475621
v -0.000000 -0.003950 -13.570333
v -0.000000 0.021795 -13.642282
v -0.000000 0.058379 -13.681577
v -0.000000 0.075993 -13.691061
v -0.000000 0.090898 -13.684286
v -0.000000 0.094963 -13.666672
v -0.000000 0.096318 -13.589438
v 0.000000 0.102448 -13.447886
v 0.000000 0.007887 -13.436469
v -0.013654 -0.003950 -13.475621
v -0.013654 -0.003950 -13.570333
v -0.014288 0.021795 -13.642282
v -0.013654 0.058379 -13.681577
v -0.013654 0.075993 -13.691061
v -0.013654 0.090898 -13.684286
v -0.013654 0.094963 -13.666672
v -0.013654 0.096318 -13.589438
v -0.010627 0.102448 -13.447886
v -0.009532 0.007887 -13.436469
v -0.037973 0.093176 -13.446766
v -0.046974 0.053524 -13.580682
v -0.038836 0.055346 -13.635333
v -0.026987 0.021562 -13.438120
v -0.037423 0.013463 -13.475827
v -0.034696 0.010427 -13.564483
v -0.023504 0.071902 -13.672902
v 0.013654 -0.003950 -13.475621
v 0.013654 -0.003950 -13.570333
v 0.014288 0.021795 -13.642282
v 0.013654 0.058379 -13.681577
v 0.013654 0.075993 -13.691061
v 0.013654 0.090898 -13.684286
v 0.013654 0.094963 -13.666672
v 0.013654 0.096318 -13.589438
v 0.010627 0.102448 -13.447886
v 0.009532 0.007887 -13.436469
v 0.037973 0.093176 -13.446766
v 0.046974 0.053524 -13.580682
v 0.038836 0.055346 -13.635333
v 0.026987 0.021562 -13.438120
v 0.037423 0.013463 -13.475827
v 0.034696 0.010427 -13.564483
v 0.023504 0.071902 -13.672902
v 0.000000 0.108453 -13.448610
v -0.011631 0.108453 -13.448610
v -0.011631 0.001883 -13.435744
v 0.000000 0.001883 -13.435744
v -0.032607 0.018316 -13.437728
v -0.044714 0.097236 -13.447256
v 0.011631 0.108453 -13.448610
v 0.011631 0.001883 -13.435744
v 0.032607 0.018316 -13.437728
v 0.044714 0.097236 -13.447256
vn -0.0000 -0.9895 0.1447
vn -0.0000 -0.9415 -0.3369
vn -0.0000 -0.7319 -0.6814
vn -0.0000 -0.4741 -0.8805
vn -0.0000 0.4138 -0.9104
vn -0.0000 0.9744 -0.2249
vn -0.0000 0.9998 -0.0175
vn -0.0000 0.9963 -0.0859
vn -0.0000 -1.0000 -0.0000
vn -0.0000 -0.5399 0.8417
vn -0.6005 -0.7835 0.1600
vn -0.9912 -0.1109 0.0723
vn -0.9522 -0.2975 -0.0697
vn -0.5782 -0.8159 0.0049
vn -0.7316 -0.6204 -0.2826
vn -0.7842 -0.4221 -0.4547
vn -0.8876 0.4263 -0.1744
vn -0.6375 0.7568 -0.1442
vn -0.8255 0.5622 -0.0490
vn -0.9059 0.4127 -0.0952
vn -0.8745 -0.0403 -0.4834
vn 0.6005 -0.7835 0.1600
vn 0.9912 -0.1109 0.0723
vn 0.9522 -0.2975 -0.0697
vn 0.5782 -0.8159 0.0049
vn 0.7316 -0.6204 -0.2826
vn 0.7842 -0.4221 -0.4547
vn 0.8876 0.4263 -0.1744
vn 0.6375 0.7568 -0.1442
vn 0.8255 0.5622 -0.0490
vn 0.9059 0.4127 -0.0952
vn 0.8745 -0.0403 -0.4834
vn -0.0000 0.1199 0.9928
vt 0.340997 0.698661
vt 0.346461 0.698770
vt 0.347136 0.655253
vt 0.341567 0.655137
vt 0.343229 0.545849
vt 0.342362 0.594686
vt 0.348124 0.594814
vt 0.349699 0.545997
vt 0.342619 0.515699
vt 0.345037 0.515755
vt 0.342727 0.512816
vt 0.345221 0.512874
vt 0.342760 0.514898
vt 0.345300 0.514958
vt 0.344211 0.528992
vt 0.351164 0.529153
vt 0.343365 0.591613
vt 0.350020 0.591761
vt 0.342568 0.656160
vt 0.349061 0.656296
vt 0.346858 0.518430
vt 0.356880 0.690410
vt 0.357256 0.658321
vt 0.364357 0.593946
vt 0.365708 0.658540
vt 0.361795 0.553165
vt 0.357273 0.600457
vt 0.335997 0.655020
vt 0.335532 0.698551
vt 0.336757 0.545700
vt 0.336599 0.594559
vt 0.340201 0.515642
vt 0.340232 0.512757
vt 0.340219 0.514839
vt 0.337256 0.528830
vt 0.336708 0.591466
vt 0.336074 0.656025
vt 0.338413 0.518233
vt 0.326079 0.657672
vt 0.325526 0.689777
vt 0.321418 0.592995
vt 0.318582 0.657559
vt 0.325115 0.552328
vt 0.327544 0.599802
vt 0.471033 0.633988
vt 0.469796 0.683290
vt 0.418036 0.734105
vt 0.406644 0.721938
vt 0.405275 0.709009
vt 0.403854 0.696278
vt 0.409737 0.660894
vt 0.454800 0.576148
vt 0.466716 0.603885
vt 0.468884 0.618794
vt 0.454339 0.517738
vt 0.450216 0.518687
vt 0.448429 0.517703
vt 0.452942 0.516646
vt 0.476499 0.534029
vt 0.480018 0.533348
vt 0.482340 0.534150
vt 0.478063 0.534983
vt 0.483091 0.529931
vt 0.486124 0.530091
vt 0.467911 0.516913
vt 0.469484 0.515649
vt 0.446172 0.519634
vt 0.443985 0.518744
vt 0.473035 0.534720
vt 0.473845 0.535804
vt 0.463177 0.533939
vt 0.462101 0.534897
vt 0.438834 0.523562
vt 0.435208 0.523513
s 0
usemtl Material
f 48/1/1 47/2/1 11/3/1 1/4/1
f 3/5/2 2/6/2 12/7/2 13/8/2
f 4/9/3 3/5/3 13/8/3 14/10/3
f 5/11/4 4/9/4 14/10/4 15/12/4
f 6/13/5 5/11/5 15/12/5 16/14/5
f 7/15/6 6/13/6 16/14/6 17/16/6
f 8/17/7 7/15/7 17/16/7 18/18/7
f 45/19/8 8/17/8 18/18/8 46/20/8
f 2/6/9 1/4/9 11/3/9 12/7/9
f 4/9/10 27/21/10 14/10/10
f 11/3/11 47/2/11 49/22/11 25/23/11
f 22/24/12 25/23/12 49/22/12 50/25/12
f 23/26/13 26/27/13 25/23/13 22/24/13
f 12/7/14 11/3/14 25/23/14 26/27/14
f 13/8/15 12/7/15 26/27/15 23/26/15
f 14/10/16 13/8/16 23/26/16 27/21/16
f 17/16/17 27/21/17 23/26/17
f 18/18/18 22/24/18 50/25/18 46/20/18
f 17/16/19 23/26/19 22/24/19 18/18/19
f 17/16/20 16/14/20 27/21/20
f 14/10/21 27/21/21 16/14/21 15/12/21
f 48/1/1 1/4/1 28/28/1 52/29/1
f 3/5/2 30/30/2 29/31/2 2/6/2
f 4/9/3 31/32/3 30/30/3 3/5/3
f 5/11/4 32/33/4 31/32/4 4/9/4
f 6/13/5 33/34/5 32/33/5 5/11/5
f 7/15/6 34/35/6 33/34/6 6/13/6
f 8/17/7 35/36/7 34/35/7 7/15/7
f 45/19/8 51/37/8 35/36/8 8/17/8
f 2/6/9 29/31/9 28/28/9 1/4/9
f 4/9/10 31/32/10 44/38/10
f 28/28/22 42/39/22 53/40/22 52/29/22
f 39/41/23 54/42/23 53/40/23 42/39/23
f 40/43/24 39/41/24 42/39/24 43/44/24
f 29/31/25 43/44/25 42/39/25 28/28/25
f 30/30/26 40/43/26 43/44/26 29/31/26
f 31/32/27 44/38/27 40/43/27 30/30/27
f 34/35/28 40/43/28 44/38/28
f 35/36/29 51/37/29 54/42/29 39/41/29
f 34/35/30 35/36/30 39/41/30 40/43/30
f 34/35/31 44/38/31 33/34/31
f 31/32/32 32/33/32 33/34/32 44/38/32
f 19/45/33 21/46/33 24/47/33 20/48/33 10/49/33 37/50/33 41/51/33 38/52/33 36/53/33 9/54/33
f 19/55/33 9/56/33 45/57/33 46/58/33
f 10/59/33 20/60/33 47/61/33 48/62/33
f 20/60/33 24/63/33 49/64/33 47/61/33
f 24/63/33 21/65/33 50/66/33 49/64/33
f 21/65/33 19/55/33 46/58/33 50/66/33
f 9/56/33 36/67/33 51/68/33 45/57/33
f 37/69/33 10/59/33 48/62/33 52/70/33
f 41/71/33 37/69/33 52/70/33 53/72/33
f 38/73/33 41/71/33 53/72/33 54/74/33
f 36/67/33 38/73/33 54/74/33 51/68/33
