# Blender 5.0.1
# www.blender.org
mtllib Chili-C2.mtl
o Cube.015
v -0.000000 0.007496 -18.811680
v -0.000000 0.020929 -18.906391
v -0.000000 0.046673 -18.978340
v -0.006485 0.132595 -19.081137
v -0.006485 0.153662 -19.099731
v -0.006485 0.171974 -19.102457
v -0.006485 0.159725 -19.070084
v -0.000000 0.121196 -18.925497
v -0.000000 0.115893 -18.840134
v -0.000000 0.154919 -18.721327
v -0.000000 0.083375 -18.662420
v -0.000000 0.041370 -18.714121
v -0.013654 0.007496 -18.811680
v -0.013654 0.020929 -18.906391
v -0.014288 0.046673 -18.978340
v -0.016611 0.132595 -19.081137
v -0.016611 0.153662 -19.099731
v -0.016611 0.164715 -19.094707
v -0.016611 0.159725 -19.070084
v -0.013654 0.121196 -18.925497
v -0.013654 0.115893 -18.840134
v -0.013654 0.154919 -18.721327
v -0.013654 0.083375 -18.662420
v -0.013654 0.041370 -18.714121
v -0.053674 0.141498 -18.710276
v -0.052490 0.078329 -18.826870
v -0.046974 0.078403 -18.916740
v -0.038836 0.080224 -18.971390
v -0.039461 0.097840 -18.674330
v -0.038277 0.052841 -18.733553
v -0.037423 0.024909 -18.811886
v -0.034696 0.035306 -18.900539
v -0.023916 0.142624 -19.074705
v 0.013654 0.007496 -18.811680
v 0.013654 0.020929 -18.906391
v 0.014288 0.046673 -18.978340
v 0.003640 0.132595 -19.081137
v 0.003640 0.153662 -19.099731
v 0.003640 0.164715 -19.094707
v 0.003640 0.159725 -19.070084
v 0.013654 0.121196 -18.925497
v 0.013654 0.115893 -18.840134
v 0.013654 0.154919 -18.721327
v 0.013654 0.083375 -18.662420
v 0.013654 0.041370 -18.714121
v 0.053674 0.141498 -18.710276
v 0.052490 0.078329 -18.826870
v 0.046974 0.078403 -18.916740
v 0.038836 0.080224 -18.971390
v 0.039461 0.097840 -18.674330
v 0.038277 0.052841 -18.733553
v 0.037423 0.024909 -18.811886
v 0.034696 0.035306 -18.900539
v 0.010945 0.142624 -19.074705
vn -0.0000 0.9501 -0.3121
vn -0.0000 -0.9447 0.3280
vn -0.0000 -0.9415 -0.3369
vn -0.0000 -0.7673 -0.6413
vn -0.0000 -0.6617 -0.7497
vn -0.3789 0.0722 -0.9226
vn -0.2263 0.9323 0.2820
vn -0.0000 0.9663 0.2575
vn -0.0000 0.9981 0.0620
vn -0.0000 -0.7761 0.6306
vn -0.0000 -0.9901 -0.1404
vn -0.0000 -0.5399 0.8417
vn -0.6185 -0.6215 0.4809
vn -0.9742 -0.1977 0.1085
vn -0.5718 -0.7748 0.2695
vn -0.9630 -0.2693 0.0081
vn -0.9468 -0.3065 -0.0979
vn -0.5843 -0.8036 -0.1131
vn -0.7316 -0.6204 -0.2826
vn -0.7977 -0.4653 -0.3836
vn -0.9244 0.3705 0.0903
vn -0.5821 0.7448 -0.3263
vn -0.7445 0.6677 -0.0029
vn -0.8833 0.4635 0.0709
vn -0.9242 0.3743 0.0759
vn -0.9318 -0.1412 -0.3343
vn 0.3789 0.0722 -0.9226
vn 0.2263 0.9323 0.2820
vn 0.6185 -0.6215 0.4809
vn 0.9742 -0.1977 0.1085
vn 0.5718 -0.7748 0.2695
vn 0.9630 -0.2693 0.0081
vn 0.9468 -0.3065 -0.0979
vn 0.5843 -0.8036 -0.1131
vn 0.7316 -0.6204 -0.2826
vn 0.7796 -0.4300 -0.4552
vn 0.9186 0.3950 -0.0095
vn 0.5821 0.7448 -0.3263
vn 0.7445 0.6677 -0.0029
vn 0.8632 0.5043 0.0235
vn 0.9242 0.3743 0.0759
vn 0.9318 -0.1412 -0.3343
vn -0.0000 0.6356 0.7720
vt 0.856411 0.654335
vt 0.856096 0.636110
vt 0.860250 0.636197
vt 0.860545 0.654417
vt 0.855091 0.663303
vt 0.858587 0.663373
vt 0.859018 0.635529
vt 0.855455 0.635455
vt 0.856519 0.565530
vt 0.855964 0.596777
vt 0.859651 0.596859
vt 0.860658 0.565625
vt 0.853401 0.554978
vt 0.853209 0.545659
vt 0.859678 0.545713
vt 0.859412 0.555024
vt 0.861030 0.555032
vt 0.863444 0.551852
vt 0.869121 0.552034
vt 0.866902 0.555217
vt 0.860719 0.561885
vt 0.866604 0.562062
vt 0.862515 0.567732
vt 0.868239 0.567897
vt 0.853580 0.586375
vt 0.853373 0.572500
vt 0.859357 0.572540
vt 0.859465 0.586410
vt 0.856606 0.594811
vt 0.860864 0.594906
vt 0.855613 0.691194
vt 0.859195 0.691262
vt 0.856129 0.546239
vt 0.858840 0.547987
vt 0.857675 0.546276
vt 0.866262 0.685587
vt 0.865253 0.658024
vt 0.870901 0.637633
vt 0.871379 0.654425
vt 0.865494 0.637493
vt 0.870037 0.596304
vt 0.868398 0.570211
vt 0.865505 0.600470
vt 0.870759 0.560818
vt 0.863721 0.562250
vt 0.873529 0.571700
vt 0.873203 0.558814
vt 0.852275 0.654253
vt 0.851941 0.636024
vt 0.851891 0.635381
vt 0.851594 0.663233
vt 0.852378 0.565435
vt 0.852277 0.596696
vt 0.847385 0.554932
vt 0.846735 0.545606
vt 0.855144 0.554847
vt 0.857753 0.551669
vt 0.854820 0.561708
vt 0.856777 0.567567
vt 0.847691 0.586340
vt 0.847386 0.572460
vt 0.852347 0.594717
vt 0.852030 0.691125
vt 0.854582 0.546203
vt 0.853437 0.547861
vt 0.845192 0.657619
vt 0.845192 0.685180
vt 0.840749 0.637005
vt 0.840876 0.653822
vt 0.845546 0.637077
vt 0.842563 0.595696
vt 0.844929 0.569676
vt 0.846483 0.600051
vt 0.843167 0.562100
vt 0.835304 0.560556
vt 0.834566 0.571437
vt 0.853683 0.558214
vt 0.680964 0.103522
vt 0.646182 0.092881
vt 0.648273 0.046674
vt 0.667669 0.028398
vt 0.678632 0.027329
vt 0.689571 0.026264
vt 0.713634 0.040021
vt 0.731382 0.085763
vt 0.703173 0.101196
vt 0.692081 0.102358
s 0
usemtl Material
f 10/1/1 9/2/1 21/3/1 22/4/1
f 12/5/2 24/6/2 13/7/2 1/8/2
f 3/9/3 2/10/3 14/11/3 15/12/3
f 4/13/4 3/14/4 15/15/4 16/16/4
f 5/17/5 4/18/5 16/19/5 17/20/5
f 6/21/6 5/17/6 17/20/6 18/22/6
f 7/23/7 6/21/7 18/22/7 19/24/7
f 8/25/8 7/26/8 19/27/8 20/28/8
f 9/2/9 8/29/9 20/30/9 21/3/9
f 12/5/10 11/31/10 23/32/10 24/6/10
f 2/10/11 1/8/11 13/7/11 14/11/11
f 4/33/12 33/34/12 16/35/12
f 24/6/13 23/32/13 29/36/13 30/37/13
f 26/38/14 30/37/14 29/36/14 25/39/14
f 13/7/15 24/6/15 30/37/15 31/40/15
f 27/41/16 31/40/16 30/37/16 26/38/16
f 28/42/17 32/43/17 31/40/17 27/41/17
f 14/11/18 13/7/18 31/40/18 32/43/18
f 15/12/19 14/11/19 32/43/19 28/42/19
f 16/16/20 15/15/20 28/44/20 33/45/20
f 19/27/21 33/45/21 28/44/21
f 21/3/22 26/38/22 25/39/22 22/4/22
f 20/30/23 27/41/23 26/38/23 21/3/23
f 19/27/24 28/44/24 27/46/24 20/28/24
f 19/24/25 18/22/25 33/47/25
f 16/19/26 33/47/26 18/22/26 17/20/26
f 10/1/1 43/48/1 42/49/1 9/2/1
f 12/5/2 1/8/2 34/50/2 45/51/2
f 3/9/3 36/52/3 35/53/3 2/10/3
f 4/13/4 37/54/4 36/55/4 3/14/4
f 5/17/5 38/56/5 37/57/5 4/18/5
f 6/21/27 39/58/27 38/56/27 5/17/27
f 7/23/28 40/59/28 39/58/28 6/21/28
f 8/25/8 41/60/8 40/61/8 7/26/8
f 9/2/9 42/49/9 41/62/9 8/29/9
f 12/5/10 45/51/10 44/63/10 11/31/10
f 2/10/11 35/53/11 34/50/11 1/8/11
f 4/33/12 37/64/12 54/65/12
f 45/51/29 51/66/29 50/67/29 44/63/29
f 47/68/30 46/69/30 50/67/30 51/66/30
f 34/50/31 52/70/31 51/66/31 45/51/31
f 48/71/32 47/68/32 51/66/32 52/70/32
f 49/72/33 48/71/33 52/70/33 53/73/33
f 35/53/34 53/73/34 52/70/34 34/50/34
f 36/52/35 49/72/35 53/73/35 35/53/35
f 37/54/36 54/74/36 49/75/36 36/55/36
f 40/61/37 49/75/37 54/74/37
f 42/49/38 43/48/38 46/69/38 47/68/38
f 41/62/39 42/49/39 47/68/39 48/71/39
f 40/61/40 41/60/40 48/76/40 49/75/40
f 40/59/41 54/77/41 39/58/41
f 37/57/42 38/56/42 39/58/42 54/77/42
f 22/78/43 25/79/43 29/80/43 23/81/43 11/82/43 44/83/43 50/84/43 46/85/43 43/86/43 10/87/43
