# Blender 5.0.1
# www.blender.org
mtllib Coconut.mtl
o Cube.002
v 0.000000 -0.000034 -0.597510
v -0.026059 0.002247 -0.623569
v -0.049894 0.007640 -0.647403
v -0.072457 0.023826 -0.669966
v -0.095338 0.053611 -0.692848
v -0.113134 0.090255 -0.710644
v -0.121715 0.127206 -0.719224
v -0.128706 0.170463 -0.726216
v -0.130295 0.205765 -0.727805
v -0.128071 0.259230 -0.725580
v -0.116630 0.303870 -0.714140
v -0.097880 0.341596 -0.695390
v -0.071186 0.376065 -0.668695
v -0.039724 0.401873 -0.637234
v -0.000000 0.409978 -0.597510
v 0.026059 0.008753 -0.623569
v 0.049894 0.014147 -0.647403
v 0.060784 0.025851 -0.658293
v 0.083665 0.053910 -0.681174
v 0.101461 0.090753 -0.698971
v 0.110042 0.127836 -0.707551
v 0.117033 0.171162 -0.714543
v 0.118622 0.206458 -0.716132
v 0.116397 0.259810 -0.713907
v 0.104957 0.304411 -0.702466
v 0.086207 0.344575 -0.683717
v 0.059512 0.372586 -0.657022
v 0.039724 0.394217 -0.637234
v 0.000000 0.003031 -0.634363
v 0.000000 0.023826 -0.699979
v 0.000000 0.053611 -0.732338
v 0.000000 0.090255 -0.757506
v 0.000000 0.170463 -0.779528
v 0.000000 0.205765 -0.781775
v 0.000000 0.259230 -0.778629
v 0.000000 0.341596 -0.735933
v 0.000000 0.376065 -0.698181
v 0.000000 0.400591 -0.653688
v 0.036853 0.003031 -0.597510
v 0.070560 0.007640 -0.597510
v 0.102469 0.023826 -0.597510
v 0.134828 0.053611 -0.597510
v 0.159996 0.090255 -0.597510
v 0.182018 0.170463 -0.597510
v 0.184265 0.205765 -0.597510
v 0.181119 0.259230 -0.597510
v 0.164940 0.303870 -0.597510
v 0.138424 0.341596 -0.597510
v 0.100672 0.376065 -0.597510
v 0.056178 0.400591 -0.597510
v -0.026059 0.008753 -0.571451
v -0.049894 0.014147 -0.547616
v -0.060784 0.025851 -0.536726
v -0.083665 0.053910 -0.513845
v -0.101461 0.090753 -0.496048
v -0.110042 0.127836 -0.487468
v -0.117033 0.171162 -0.480477
v -0.118622 0.206458 -0.478888
v -0.116397 0.259810 -0.481112
v -0.104957 0.304411 -0.492553
v -0.086207 0.344575 -0.511303
v -0.059512 0.372586 -0.537997
v -0.039724 0.394217 -0.557786
v -0.036853 0.003031 -0.597510
v -0.070560 0.007640 -0.597510
v -0.102469 0.023826 -0.597510
v -0.134828 0.053611 -0.597510
v -0.159996 0.090255 -0.597510
v -0.182018 0.170463 -0.597510
v -0.184265 0.205765 -0.597510
v -0.164940 0.303870 -0.597510
v -0.138424 0.341596 -0.597510
v -0.100672 0.376065 -0.597510
v -0.056178 0.400591 -0.597510
v 0.000000 0.023826 -0.495040
v 0.000000 0.053611 -0.462681
v 0.000000 0.090255 -0.437514
v 0.000000 0.170463 -0.415492
v 0.000000 0.205765 -0.413244
v 0.000000 0.259230 -0.416390
v 0.000000 0.341596 -0.459086
v 0.000000 0.376065 -0.496838
v 0.000000 0.400591 -0.541331
v 0.026059 0.002247 -0.571451
v 0.049894 0.007640 -0.547616
v 0.072457 0.023826 -0.525053
v 0.095338 0.053611 -0.502172
v 0.113134 0.090255 -0.484375
v 0.121715 0.127206 -0.475795
v 0.128706 0.170463 -0.468803
v 0.130295 0.205765 -0.467214
v 0.128071 0.259230 -0.469439
v 0.116630 0.303870 -0.480880
v 0.097880 0.341596 -0.499629
v 0.071186 0.376065 -0.526324
v 0.039724 0.401873 -0.557786
v 0.172131 0.127206 -0.597510
v 0.000000 0.007640 -0.668070
v 0.000000 0.127206 -0.769640
v 0.000000 0.303870 -0.762449
v 0.000000 0.003031 -0.560657
v 0.000000 0.007640 -0.526950
v 0.000000 0.127206 -0.425379
v 0.000000 0.303870 -0.432570
v -0.172131 0.127206 -0.597510
v -0.181119 0.259230 -0.597510
vn -0.0000 -1.0000 -0.0000
vn -0.0796 -0.9936 -0.0796
vn -0.2387 -0.9413 -0.2387
vn -0.4187 -0.8058 -0.4187
vn -0.5423 -0.6417 -0.5423
vn -0.6383 -0.4303 -0.6383
vn -0.6819 -0.2648 -0.6819
vn -0.7000 -0.1409 -0.7000
vn -0.7071 -0.0024 -0.7071
vn -0.6935 0.1952 -0.6935
vn -0.6318 0.4492 -0.6318
vn -0.5388 0.6477 -0.5388
vn -0.4269 0.7972 -0.4269
vn -0.2547 0.9329 -0.2547
vn -0.0000 1.0000 -0.0000
vn 0.1502 -0.9772 -0.1502
vn 0.3037 -0.9031 -0.3037
vn 0.4483 -0.7734 -0.4483
vn 0.5511 -0.6266 -0.5511
vn 0.6433 -0.4150 -0.6433
vn 0.6841 -0.2532 -0.6841
vn 0.7006 -0.1350 -0.7006
vn 0.7071 -0.0020 -0.7071
vn 0.6944 0.1891 -0.6944
vn 0.6383 0.4303 -0.6383
vn 0.5421 0.6421 -0.5421
vn 0.4456 0.7765 -0.4456
vn 0.3363 0.8797 -0.3363
vn 0.0904 -0.9902 -0.1063
vn 0.0658 -0.8071 -0.5867
vn 0.0603 -0.6525 -0.7554
vn 0.0588 -0.4369 -0.8976
vn 0.0561 -0.1438 -0.9880
vn 0.0558 -0.0025 -0.9984
vn 0.0547 0.1983 -0.9786
vn 0.0532 0.6585 -0.7507
vn 0.0626 0.8063 -0.5881
vn 0.0857 0.9246 -0.3712
vn 0.1063 -0.9902 -0.0904
vn 0.3359 -0.9393 -0.0704
vn 0.5867 -0.8071 -0.0658
vn 0.7554 -0.6525 -0.0603
vn 0.8976 -0.4369 -0.0588
vn 0.9880 -0.1438 -0.0561
vn 0.9984 -0.0025 -0.0558
vn 0.9786 0.1983 -0.0547
vn 0.8901 0.4526 -0.0542
vn 0.7507 0.6585 -0.0532
vn 0.5881 0.8063 -0.0626
vn 0.3712 0.9246 -0.0857
vn -0.1502 -0.9772 0.1502
vn -0.3037 -0.9031 0.3037
vn -0.4483 -0.7734 0.4483
vn -0.5511 -0.6266 0.5511
vn -0.6433 -0.4150 0.6433
vn -0.6841 -0.2532 0.6841
vn -0.7006 -0.1350 0.7006
vn -0.7071 -0.0020 0.7071
vn -0.6944 0.1891 0.6944
vn -0.6383 0.4303 0.6383
vn -0.5421 0.6421 0.5421
vn -0.4456 0.7765 0.4456
vn -0.3363 0.8797 0.3363
vn -0.1063 -0.9902 0.0904
vn -0.3359 -0.9393 0.0704
vn -0.5867 -0.8071 0.0658
vn -0.7554 -0.6525 0.0603
vn -0.8976 -0.4369 0.0588
vn -0.9880 -0.1438 0.0561
vn -0.9984 -0.0025 0.0558
vn -0.8901 0.4526 0.0542
vn -0.7507 0.6585 0.0532
vn -0.5881 0.8063 0.0626
vn -0.3712 0.9246 0.0857
vn -0.0658 -0.8071 0.5867
vn -0.0603 -0.6525 0.7554
vn -0.0588 -0.4369 0.8976
vn -0.0561 -0.1438 0.9880
vn -0.0558 -0.0025 0.9984
vn -0.0547 0.1983 0.9786
vn -0.0532 0.6585 0.7507
vn -0.0626 0.8063 0.5881
vn -0.0857 0.9246 0.3712
vn 0.0796 -0.9936 0.0796
vn 0.2387 -0.9413 0.2387
vn 0.4187 -0.8058 0.4187
vn 0.5423 -0.6417 0.5423
vn 0.6383 -0.4303 0.6383
vn 0.6819 -0.2648 0.6819
vn 0.7000 -0.1409 0.7000
vn 0.7071 -0.0024 0.7071
vn 0.6935 0.1952 0.6935
vn 0.6318 0.4492 0.6318
vn 0.5388 0.6477 0.5388
vn 0.4269 0.7972 0.4269
vn 0.2547 0.9329 0.2547
vn 0.9610 -0.2702 -0.0583
vn 0.0704 -0.9393 -0.3359
vn 0.0583 -0.2702 -0.9610
vn 0.0542 0.4526 -0.8901
vn -0.0904 -0.9902 0.1063
vn -0.0704 -0.9393 0.3359
vn -0.0583 -0.2702 0.9610
vn -0.0542 0.4526 0.8901
vn -0.9610 -0.2702 0.0583
vn -0.9786 0.1983 0.0547
vt 0.548325 0.368226
vt 0.527062 0.392779
vt 0.518622 0.371653
vt 0.526892 0.348425
vt 0.547383 0.337312
vt 0.510101 0.435593
vt 0.505788 0.375022
vt 0.512056 0.336994
vt 0.547532 0.297646
vt 0.581314 0.418521
vt 0.592994 0.423650
vt 0.605153 0.411881
vt 0.588348 0.406082
vt 0.581162 0.426656
vt 0.591269 0.418474
vt 0.561113 0.430896
vt 0.561256 0.420637
vt 0.561275 0.407432
vt 0.598533 0.404507
vt 0.613581 0.398876
vt 0.592993 0.393492
vt 0.618495 0.383437
vt 0.595585 0.379408
vt 0.602896 0.387902
vt 0.561144 0.390117
vt 0.560822 0.368336
vt 0.603291 0.367349
vt 0.618973 0.365006
vt 0.595742 0.363119
vt 0.617860 0.352925
vt 0.595077 0.352478
vt 0.602257 0.353789
vt 0.560570 0.353970
vt 0.560202 0.336707
vt 0.598914 0.337419
vt 0.614167 0.338248
vt 0.592988 0.339453
vt 0.609839 0.325840
vt 0.590529 0.328248
vt 0.595073 0.323814
vt 0.559867 0.322490
vt 0.559446 0.309435
vt 0.587768 0.311089
vt 0.601344 0.313720
vt 0.585645 0.316839
vt 0.590712 0.304057
vt 0.579320 0.307122
vt 0.579021 0.302314
vt 0.559041 0.300016
vt 0.558742 0.295955
vt 0.575043 0.298876
vt 0.580454 0.298961
vt 0.572968 0.301350
vt 0.569810 0.297700
vt 0.566092 0.298754
vt 0.566815 0.298402
vt 0.558513 0.296143
vt 0.558290 0.296974
vt 0.548978 0.368226
vt 0.518050 0.369342
vt 0.526566 0.391689
vt 0.527414 0.346180
vt 0.548680 0.337312
vt 0.503860 0.371838
vt 0.507918 0.434621
vt 0.511690 0.332598
vt 0.549151 0.297646
vt 0.559194 0.403577
vt 0.559584 0.416208
vt 0.577986 0.314566
vt 0.560322 0.315726
vt 0.560817 0.328354
vt 0.585673 0.325111
vt 0.603418 0.321505
vt 0.591496 0.309641
vt 0.590915 0.338435
vt 0.611736 0.334256
vt 0.561239 0.340682
vt 0.558874 0.391245
vt 0.558590 0.377784
vt 0.561635 0.354141
vt 0.594099 0.352332
vt 0.616831 0.349131
vt 0.594914 0.368314
vt 0.617958 0.366754
vt 0.562015 0.369508
vt 0.558337 0.362414
vt 0.558192 0.352387
vt 0.562244 0.379534
vt 0.594674 0.378778
vt 0.617393 0.378311
vt 0.593096 0.391647
vt 0.614556 0.392424
vt 0.562492 0.391850
vt 0.558046 0.340069
vt 0.557937 0.329391
vt 0.562690 0.402526
vt 0.591066 0.402790
vt 0.611032 0.404449
vt 0.586567 0.414294
vt 0.603587 0.416436
vt 0.562834 0.413601
vt 0.557885 0.318316
vt 0.557895 0.308601
vt 0.562904 0.423315
vt 0.580473 0.423691
vt 0.593925 0.426284
vt 0.577472 0.427792
vt 0.584293 0.431782
vt 0.562881 0.429383
vt 0.557969 0.302534
vt 0.558113 0.299670
vt 0.562761 0.432248
vt 0.570548 0.430683
vt 0.562606 0.434945
vt 0.548713 0.401603
vt 0.549372 0.455376
vt 0.583286 0.304045
vt 0.593187 0.314940
vt 0.558613 0.311311
vt 0.558671 0.301051
vt 0.600470 0.328004
vt 0.558704 0.324516
vt 0.605122 0.344388
vt 0.558979 0.341829
vt 0.606248 0.364547
vt 0.559481 0.363607
vt 0.605798 0.377821
vt 0.559853 0.377970
vt 0.603321 0.393883
vt 0.560364 0.395230
vt 0.600267 0.407292
vt 0.560817 0.409443
vt 0.593921 0.420023
vt 0.561346 0.422494
vt 0.586006 0.429703
vt 0.561830 0.431910
vt 0.578455 0.434372
vt 0.562163 0.435968
vt 0.570728 0.435224
vt 0.562390 0.435779
vt 0.548590 0.401603
vt 0.548550 0.455376
vt 0.573982 0.433592
s 1
usemtl Material
f 15/1/15 50/2/50 28/3/28
f 15/1/15 28/3/28 38/4/38
f 15/1/15 38/4/38 14/5/14
f 28/3/28 50/2/50 49/6/49 27/7/27
f 28/3/28 27/7/27 37/8/37 38/4/38
f 14/5/14 38/4/38 37/8/37 13/9/13
f 13/10/13 37/11/37 36/12/36 12/13/12
f 27/14/27 26/15/26 36/12/36 37/11/37
f 27/14/27 49/16/49 48/17/48 26/15/26
f 26/15/26 48/17/48 47/18/47 25/19/25
f 26/15/26 25/19/25 100/20/100 36/12/36
f 12/13/12 36/12/36 100/20/100 11/21/11
f 11/21/11 100/20/100 35/22/35 10/23/10
f 25/19/25 24/24/24 35/22/35 100/20/100
f 25/19/25 47/18/47 46/25/46 24/24/24
f 24/24/24 46/25/46 45/26/45 23/27/23
f 24/24/24 23/27/23 34/28/34 35/22/35
f 10/23/10 35/22/35 34/28/34 9/29/9
f 9/29/9 34/28/34 33/30/33 8/31/8
f 23/27/23 22/32/22 33/30/33 34/28/34
f 23/27/23 45/26/45 44/33/44 22/32/22
f 22/32/22 44/33/44 97/34/97 21/35/21
f 22/32/22 21/35/21 99/36/99 33/30/33
f 8/31/8 33/30/33 99/36/99 7/37/7
f 7/37/7 99/36/99 32/38/32 6/39/6
f 21/35/21 20/40/20 32/38/32 99/36/99
f 21/35/21 97/34/97 43/41/43 20/40/20
f 20/40/20 43/41/43 42/42/42 19/43/19
f 20/40/20 19/43/19 31/44/31 32/38/32
f 6/39/6 32/38/32 31/44/31 5/45/5
f 5/45/5 31/44/31 30/46/30 4/47/4
f 19/43/19 18/48/18 30/46/30 31/44/31
f 19/43/19 42/42/42 41/49/41 18/48/18
f 18/48/18 41/49/41 40/50/40 17/51/17
f 18/48/18 17/51/17 98/52/98 30/46/30
f 4/47/4 30/46/30 98/52/98 3/53/3
f 3/53/3 98/52/98 29/54/29 2/55/2
f 17/51/17 16/56/16 29/54/29 98/52/98
f 17/51/17 40/50/40 39/57/39 16/56/16
f 39/57/39 1/58/1 16/56/16
f 29/54/29 16/56/16 1/58/1
f 2/55/2 29/54/29 1/58/1
f 15/59/15 63/60/63 83/61/83
f 15/59/15 74/62/74 63/60/63
f 15/59/15 14/63/14 74/62/74
f 63/60/63 62/64/62 82/65/82 83/61/83
f 63/60/63 74/62/74 73/66/73 62/64/62
f 14/63/14 13/67/13 73/66/73 74/62/74
f 13/10/13 12/13/12 72/68/72 73/69/73
f 62/70/62 73/71/73 72/72/72 61/73/61
f 62/70/62 61/73/61 81/74/81 82/75/82
f 61/73/61 60/76/60 104/77/104 81/74/81
f 61/73/61 72/72/72 71/78/71 60/76/60
f 12/13/12 11/21/11 71/79/71 72/68/72
f 11/21/11 10/23/10 106/80/106 71/79/71
f 60/76/60 71/78/71 106/81/106 59/82/59
f 60/76/60 59/82/59 80/83/80 104/77/104
f 59/82/59 58/84/58 79/85/79 80/83/80
f 59/82/59 106/81/106 70/86/70 58/84/58
f 10/23/10 9/29/9 70/87/70 106/80/106
f 9/29/9 8/31/8 69/88/69 70/87/70
f 58/84/58 70/86/70 69/89/69 57/90/57
f 58/84/58 57/90/57 78/91/78 79/85/79
f 57/90/57 56/92/56 103/93/103 78/91/78
f 57/90/57 69/89/69 105/94/105 56/92/56
f 8/31/8 7/37/7 105/95/105 69/88/69
f 7/37/7 6/39/6 68/96/68 105/95/105
f 56/92/56 105/94/105 68/97/68 55/98/55
f 56/92/56 55/98/55 77/99/77 103/93/103
f 55/98/55 54/100/54 76/101/76 77/99/77
f 55/98/55 68/97/68 67/102/67 54/100/54
f 6/39/6 5/45/5 67/103/67 68/96/68
f 5/45/5 4/47/4 66/104/66 67/103/67
f 54/100/54 67/102/67 66/105/66 53/106/53
f 54/100/54 53/106/53 75/107/75 76/101/76
f 53/106/53 52/108/52 102/109/102 75/107/75
f 53/106/53 66/105/66 65/110/65 52/108/52
f 4/47/4 3/53/3 65/111/65 66/104/66
f 3/53/3 2/55/2 64/112/64 65/111/65
f 52/108/52 65/110/65 64/113/64 51/114/51
f 64/113/64 1/115/1 51/114/51
f 2/55/2 1/58/1 64/112/64
f 15/1/15 96/116/96 50/2/50
f 96/116/96 95/117/95 49/6/49 50/2/50
f 95/118/95 94/119/94 48/120/48 49/121/49
f 94/119/94 93/122/93 47/123/47 48/120/48
f 93/122/93 92/124/92 46/125/46 47/123/47
f 92/124/92 91/126/91 45/127/45 46/125/46
f 91/126/91 90/128/90 44/129/44 45/127/45
f 90/128/90 89/130/89 97/131/97 44/129/44
f 89/130/89 88/132/88 43/133/43 97/131/97
f 88/132/88 87/134/87 42/135/42 43/133/43
f 87/134/87 86/136/86 41/137/41 42/135/42
f 86/136/86 85/138/85 40/139/40 41/137/41
f 85/138/85 84/140/84 39/141/39 40/139/40
f 84/140/84 1/115/1 39/141/39
f 15/59/15 83/61/83 96/142/96
f 96/142/96 83/61/83 82/65/82 95/143/95
f 95/118/95 82/75/82 81/74/81 94/119/94
f 94/119/94 81/74/81 104/77/104 93/122/93
f 93/122/93 104/77/104 80/83/80 92/124/92
f 92/124/92 80/83/80 79/85/79 91/126/91
f 91/126/91 79/85/79 78/91/78 90/128/90
f 90/128/90 78/91/78 103/93/103 89/130/89
f 89/130/89 103/93/103 77/99/77 88/132/88
f 88/132/88 77/99/77 76/101/76 87/134/87
f 87/134/87 76/101/76 75/107/75 86/136/86
f 86/136/86 75/107/75 102/109/102 85/138/85
f 85/138/85 102/109/102 101/144/101 84/140/84
f 52/108/52 51/114/51 101/144/101 102/109/102
f 101/144/101 51/114/51 1/115/1
f 84/140/84 101/144/101 1/115/1
