# Blender 5.0.1
# www.blender.org
mtllib Ice-C.mtl
o Cube.013
v 0.111201 0.283517 -15.339153
v 0.111201 0.263174 -15.359496
v 0.131544 0.263174 -15.339153
v 0.111201 0.040771 -15.359496
v 0.111201 0.020428 -15.339153
v 0.131544 0.040771 -15.339153
v -0.111201 0.283517 -15.339153
v -0.131544 0.263174 -15.339153
v -0.111201 0.263174 -15.359496
v -0.111201 0.020428 -15.339153
v -0.111201 0.040771 -15.359496
v -0.131544 0.040771 -15.339153
v 0.095802 0.265301 -15.323754
v 0.095802 0.247775 -15.341281
v 0.113329 0.247775 -15.323754
v 0.095802 0.056170 -15.341281
v 0.095802 0.038644 -15.323754
v 0.113329 0.056170 -15.323754
v -0.095802 0.265301 -15.323754
v -0.113329 0.247775 -15.323754
v -0.095802 0.247775 -15.341281
v -0.095802 0.038644 -15.323754
v -0.095802 0.056170 -15.341281
v -0.113329 0.056170 -15.323754
v -0.131544 0.040771 -15.241475
v 0.113329 0.056170 -15.249289
v -0.131544 0.263174 -15.202731
v -0.111201 0.020428 -15.245891
v -0.095802 0.038644 -15.243378
v 0.111201 0.020428 -15.255424
v 0.113329 0.247775 -15.215909
v -0.095802 0.265301 -15.203893
v 0.095802 0.265301 -15.212105
v 0.131544 0.040771 -15.252751
v -0.113329 0.247775 -15.206194
v 0.111201 0.283517 -15.209592
v 0.131544 0.263174 -15.214007
v 0.095802 0.038644 -15.251591
v -0.113329 0.056170 -15.239573
v -0.111201 0.283517 -15.200059
vn 0.5774 0.5774 -0.5774
vn 0.5774 -0.5774 -0.5774
vn -0.5774 0.5774 -0.5774
vn -0.5774 -0.5774 -0.5774
vn 0.7071 -0.0000 -0.7071
vn 0.7071 -0.7071 -0.0000
vn -0.7071 0.7071 -0.0000
vn -0.7071 -0.0000 -0.7071
vn -0.0000 0.7071 -0.7071
vn -0.0000 -0.7071 -0.7071
vn 1.0000 -0.0000 -0.0000
vn -0.0000 -0.0000 -1.0000
vn -0.0000 1.0000 -0.0000
vn -0.0000 -1.0000 -0.0000
vn -1.0000 -0.0000 -0.0000
vn -0.7071 -0.7071 -0.0000
vn 0.7071 0.7071 -0.0000
vn 0.0422 -0.1715 0.9843
vn 0.0422 -0.1714 0.9843
vt 0.884188 0.095604
vt 0.884188 0.097013
vt 0.882778 0.095604
vt 0.917822 0.042333
vt 0.919231 0.043743
vt 0.917822 0.043743
vt 0.899596 0.095604
vt 0.902062 0.095604
vt 0.901005 0.097718
vt 0.919936 0.097013
vt 0.917822 0.098423
vt 0.917822 0.095956
vt 0.902414 0.042333
vt 0.902414 0.043743
vt 0.919231 0.049897
vt 0.917822 0.049729
vt 0.899596 0.085968
vt 0.902062 0.086153
vt 0.919231 0.113831
vt 0.917822 0.113831
vt 0.902414 0.052413
vt 0.902414 0.113831
vt 0.944236 0.095584
vt 0.944236 0.097018
vt 0.942802 0.095584
vt 0.978465 0.041371
vt 0.979899 0.042805
vt 0.978465 0.042805
vt 0.959916 0.095584
vt 0.962426 0.095584
vt 0.961351 0.097735
vt 0.980617 0.097018
vt 0.978465 0.098452
vt 0.978465 0.095942
vt 0.962785 0.041371
vt 0.962785 0.042805
vt 0.979899 0.049071
vt 0.978465 0.048899
vt 0.959916 0.085775
vt 0.962426 0.085963
vt 0.979899 0.114133
vt 0.978465 0.114133
vt 0.962785 0.051631
vt 0.962785 0.114133
vt 0.944236 0.086447
vt 0.884188 0.086628
vt 0.980617 0.089237
vt 0.997014 0.089678
vt 0.997014 0.095584
vt 0.919936 0.089370
vt 0.936049 0.089803
vt 0.936049 0.095604
vt 0.978465 0.088738
vt 0.942802 0.086758
vt 0.917822 0.088880
vt 0.882778 0.086934
s 0
usemtl Material.002
f 1/1/1 3/3/1 2/2/1
f 4/4/2 6/6/2 5/5/2
f 7/7/3 9/9/3 8/8/3
f 10/10/4 12/12/4 11/11/4
f 2/13/5 3/14/5 6/6/5 4/4/5
f 5/5/6 6/6/6 34/16/6 30/15/6
f 7/7/7 8/8/7 27/18/7 40/17/7
f 11/11/8 12/12/8 8/8/8 9/9/8
f 1/1/9 2/2/9 9/9/9 7/7/9
f 10/10/10 11/11/10 4/20/10 5/19/10
f 3/14/11 37/21/11 34/16/11 6/6/11
f 9/9/12 2/22/12 4/20/12 11/11/12
f 36/46/13 1/1/13 7/7/13 40/17/13
f 28/50/14 10/10/14 5/52/14 30/51/14
f 25/55/16 12/12/16 10/10/16 28/50/16
f 27/18/15 8/8/15 12/12/15 25/55/15
f 37/56/17 3/3/17 1/1/17 36/46/17
f 40/17/18 32/39/18 33/45/18 36/46/18
f 36/46/19 33/45/19 31/43/19 37/56/19
f 37/21/18 31/43/18 26/38/18 34/16/18
f 34/16/18 26/38/18 38/37/18 30/15/18
f 30/51/18 38/48/18 29/47/18 28/50/18
f 28/50/18 29/47/18 39/53/18 25/55/18
f 25/55/18 39/53/18 35/40/18 27/18/18
f 27/18/18 35/40/18 32/39/18 40/17/18
usemtl Material.003
f 13/23/1 15/25/1 14/24/1
f 16/26/2 18/28/2 17/27/2
f 19/29/3 21/31/3 20/30/3
f 22/32/4 24/34/4 23/33/4
f 14/35/5 15/36/5 18/28/5 16/26/5
f 17/27/6 18/28/6 26/38/6 38/37/6
f 19/29/7 20/30/7 35/40/7 32/39/7
f 23/33/8 24/34/8 20/30/8 21/31/8
f 13/23/9 14/24/9 21/31/9 19/29/9
f 22/32/10 23/33/10 16/42/10 17/41/10
f 15/36/11 31/43/11 26/38/11 18/28/11
f 21/31/12 14/44/12 16/42/12 23/33/12
f 33/45/13 13/23/13 19/29/13 32/39/13
f 29/47/14 22/32/14 17/49/14 38/48/14
f 35/40/15 20/30/15 24/34/15 39/53/15
f 39/53/16 24/34/16 22/32/16 29/47/16
f 31/54/17 15/25/17 13/23/17 33/45/17
f 33/45/18 32/39/18 35/40/18 39/53/18 29/47/18 38/37/18 26/38/18 31/54/18
