# Blender 5.0.1
# www.blender.org
mtllib Orange-C.mtl
o Cube.006
v 0.000000 0.019633 -6.486646
v 0.000000 0.339496 -6.486646
v 0.042158 0.011232 -6.486646
v 0.078390 0.015548 -6.486646
v 0.113711 0.030872 -6.486646
v 0.151023 0.059012 -6.486646
v 0.180657 0.092549 -6.486646
v 0.208579 0.164443 -6.486646
v 0.212091 0.195284 -6.486646
v 0.209467 0.242022 -6.486646
v 0.191580 0.280253 -6.486646
v 0.161289 0.311195 -6.486646
v 0.117412 0.334849 -6.486646
v 0.066203 0.347717 -6.486646
v -0.029673 -0.000569 -6.457687
v -0.057123 0.014146 -6.430984
v -0.069915 0.025750 -6.418643
v -0.097144 0.053032 -6.392529
v -0.118923 0.088088 -6.371961
v -0.129969 0.122694 -6.361867
v -0.139224 0.162693 -6.353652
v -0.141764 0.195051 -6.351772
v -0.139756 0.244039 -6.354465
v -0.126208 0.284937 -6.367809
v -0.103512 0.317745 -6.389432
v -0.071175 0.334996 -6.419815
v -0.047285 0.357032 -6.442221
v -0.042158 0.011232 -6.486646
v -0.078390 0.015548 -6.486646
v -0.113711 0.030872 -6.486646
v -0.151023 0.059012 -6.486646
v -0.180657 0.092549 -6.486646
v -0.208579 0.164443 -6.486646
v -0.212091 0.195284 -6.486646
v -0.191580 0.280253 -6.486646
v -0.161289 0.311195 -6.486646
v -0.117412 0.334849 -6.486646
v -0.066203 0.347717 -6.486646
v 0.000000 0.023820 -6.372038
v 0.000000 0.053032 -6.334975
v 0.000000 0.088088 -6.305797
v 0.000000 0.162693 -6.279804
v 0.000000 0.195051 -6.277135
v 0.000000 0.244039 -6.280967
v 0.000000 0.317745 -6.330549
v 0.000000 0.342464 -6.373699
v 0.000000 0.355948 -6.423975
v 0.029549 0.002247 -6.457767
v 0.056916 0.007640 -6.431116
v 0.083295 0.023820 -6.405606
v 0.110697 0.053032 -6.379398
v 0.132605 0.088088 -6.358766
v 0.143756 0.122694 -6.348630
v 0.153110 0.162693 -6.340386
v 0.155714 0.195051 -6.338500
v 0.153772 0.244039 -6.341209
v 0.140245 0.284937 -6.354592
v 0.117528 0.317745 -6.376269
v 0.085086 0.342464 -6.406781
v 0.047127 0.357284 -6.442339
v 0.195747 0.125656 -6.486646
v 0.000000 0.003031 -6.445785
v 0.000000 0.007640 -6.408115
v 0.000000 0.122694 -6.291463
v 0.000000 0.284937 -6.299894
v -0.195747 0.125656 -6.486646
v -0.209467 0.242022 -6.486646
v 0.000000 0.011368 -6.486646
v 0.041838 0.003031 -6.486646
v 0.080527 0.007640 -6.486646
v 0.117821 0.023820 -6.486646
v 0.156556 0.053032 -6.486646
v 0.187532 0.088088 -6.486646
v 0.216538 0.162693 -6.486646
v 0.220222 0.195051 -6.486646
v 0.217472 0.244039 -6.486646
v 0.198337 0.284937 -6.486646
v 0.166220 0.317745 -6.486646
v 0.120368 0.342464 -6.486646
v 0.066709 0.355948 -6.486646
v 0.000000 0.347664 -6.486646
v -0.041838 0.003031 -6.486646
v -0.080527 0.007640 -6.486646
v -0.117821 0.023820 -6.486646
v -0.156556 0.053032 -6.486646
v -0.187532 0.088088 -6.486646
v -0.216538 0.162693 -6.486646
v -0.220222 0.195051 -6.486646
v -0.198337 0.284937 -6.486646
v -0.166220 0.317745 -6.486646
v -0.120368 0.342464 -6.486646
v -0.066709 0.355948 -6.486646
v 0.203304 0.122694 -6.486646
v -0.203304 0.122694 -6.486646
v -0.217472 0.244039 -6.486646
v 0.000000 0.195284 -6.486646
v -0.140526 0.322388 -6.486646
v 0.138574 0.323441 -6.486646
vn -0.0015 0.9942 -0.1074
vn -0.1467 0.9764 0.1587
vn -0.0481 0.9875 0.1499
vn -0.1745 0.9745 0.1408
vn -0.3062 0.8944 0.3261
vn -0.0535 0.9146 0.4008
vn -0.3556 0.8919 0.2794
vn -0.5481 0.7530 0.3641
vn -0.4309 0.7775 0.4581
vn -0.0463 0.7810 0.6228
vn -0.5835 0.5324 0.6133
vn -0.0502 0.5466 0.8359
vn -0.7371 0.5067 0.4470
vn -0.8414 0.2133 0.4965
vn -0.6730 0.2313 0.7026
vn -0.0522 0.2437 0.9684
vn -0.6923 -0.0138 0.7215
vn -0.0538 -0.0062 0.9985
vn -0.8637 -0.0201 0.5037
vn -0.8492 -0.1842 0.4949
vn -0.6813 -0.1854 0.7082
vn -0.0536 -0.1849 0.9813
vn -0.6552 -0.3294 0.6798
vn -0.0549 -0.3372 0.9398
vn -0.8153 -0.3247 0.4794
vn -0.7514 -0.4817 0.4510
vn -0.6020 -0.4993 0.6231
vn -0.0542 -0.5109 0.8580
vn -0.4970 -0.6992 0.5139
vn -0.0536 -0.7154 0.6967
vn -0.6174 -0.6823 0.3915
vn -0.4855 -0.8072 0.3357
vn -0.3983 -0.8202 0.4106
vn -0.0582 -0.8445 0.5323
vn -0.2871 -0.9113 0.2950
vn -0.0533 -0.9418 0.3318
vn -0.3413 -0.9108 0.2322
vn -0.0724 -0.9974 0.0048
vn -0.0380 -0.9985 0.0397
vn 0.0220 -0.9836 -0.1791
vn -0.0000 -0.0000 -1.0000
vn 0.0717 0.9942 0.0800
vn 0.1190 0.9923 0.0346
vn 0.2745 0.9160 0.2926
vn 0.3891 0.9058 0.1678
vn 0.4362 0.7738 0.4594
vn 0.6023 0.7528 0.2655
vn 0.5803 0.5461 0.6042
vn 0.7830 0.5182 0.3441
vn 0.6750 0.2385 0.6982
vn 0.8941 0.2178 0.3913
vn 0.6949 -0.0149 0.7189
vn 0.9166 -0.0222 0.3993
vn 0.6823 -0.1935 0.7050
vn 0.9008 -0.1895 0.3906
vn 0.6532 -0.3440 0.6746
vn 0.8662 -0.3314 0.3739
vn 0.5967 -0.5149 0.6155
vn 0.7989 -0.4939 0.3433
vn 0.4880 -0.7128 0.5037
vn 0.6648 -0.6907 0.2845
vn 0.3705 -0.8466 0.3821
vn 0.5132 -0.8299 0.2189
vn 0.2091 -0.9538 0.2159
vn 0.2973 -0.9468 0.1230
vn -0.0023 -1.0000 -0.0011
vn 0.0094 -0.9999 -0.0119
vn -0.0078 -0.9992 0.0399
vt 0.059977 0.495650
vt 0.028391 0.493043
vt 0.045438 0.476507
vt 0.078765 0.477155
vt 0.095153 0.493948
vt 0.027299 0.415303
vt 0.038104 0.422550
vt 0.084508 0.422769
vt 0.095008 0.415199
vt 0.021444 0.405011
vt 0.021181 0.392233
vt 0.009764 0.392233
vt 0.008782 0.376927
vt 0.020486 0.376927
vt 0.020983 0.366817
vt 0.009484 0.366817
vt 0.012573 0.354319
vt 0.023167 0.354319
vt 0.022687 0.343507
vt 0.020326 0.327735
vt 0.031408 0.332554
vt 0.032228 0.296067
vt 0.062698 0.276496
vt 0.106116 0.296391
vt 0.083344 0.278063
vt 0.085529 0.259031
vt 0.063093 0.253639
vt 0.211834 0.286758
vt 0.226712 0.301092
vt 0.188076 0.450479
vt 0.152269 0.299241
vt 0.166585 0.286968
vt 0.186474 0.283282
vt 0.061075 0.440581
vt 0.061251 0.419195
vt 0.061196 0.405011
vt 0.100948 0.405011
vt 0.061196 0.392233
vt 0.101210 0.392233
vt 0.061196 0.376927
vt 0.101905 0.376927
vt 0.061196 0.366817
vt 0.101409 0.366817
vt 0.061196 0.354319
vt 0.099225 0.354319
vt 0.061196 0.343507
vt 0.099705 0.343507
vt 0.061196 0.332554
vt 0.090983 0.332554
vt 0.064636 0.318298
vt 0.065713 0.285109
vt 0.047144 0.280125
vt 0.042580 0.265734
vt 0.209405 0.286165
vt 0.168546 0.284161
vt 0.164126 0.251507
vt 0.209980 0.251893
vt 0.187314 0.450698
vt 0.187237 0.450273
vt 0.187897 0.450503
vt 0.187585 0.450450
vt 0.188145 0.449153
vt 0.188020 0.450317
vt 0.187995 0.449684
s 1
usemtl Material
f 81/1/1 27/2/2 47/3/3
f 81/1/1 92/4/4 27/5/2
f 27/2/2 26/6/5 46/7/6 47/3/3
f 27/5/2 92/4/4 91/8/7 26/9/5
f 26/7/5 91/7/7 90/6/8 25/6/9
f 26/7/5 25/6/9 45/6/10 46/7/6
f 25/6/9 24/10/11 65/10/12 45/6/10
f 25/6/9 90/6/8 89/10/13 24/10/11
f 24/10/11 89/10/13 95/11/14 23/12/15
f 24/10/11 23/12/15 44/11/16 65/10/12
f 23/12/15 22/13/17 43/14/18 44/11/16
f 23/12/15 95/11/14 88/14/19 22/13/17
f 22/13/17 88/14/19 87/15/20 21/16/21
f 22/13/17 21/16/21 42/15/22 43/14/18
f 21/16/21 20/17/23 64/18/24 42/15/22
f 21/16/21 87/15/20 94/18/25 20/17/23
f 20/17/23 94/18/25 86/19/26 19/19/27
f 20/17/23 19/19/27 41/19/28 64/18/24
f 19/19/27 18/20/29 40/21/30 41/19/28
f 19/19/27 86/19/26 85/21/31 18/20/29
f 18/20/29 85/21/31 84/22/32 17/22/33
f 18/20/29 17/22/33 39/22/34 40/21/30
f 17/22/33 16/23/35 63/22/36 39/22/34
f 17/22/33 84/22/32 83/22/37 16/23/35
f 16/23/35 83/24/37 82/25/38 15/26/39
f 82/25/38 68/27/40 15/26/39
f 3/28/41 1/29/41 96/30/41 6/31/41 5/32/41 4/33/41
f 81/1/1 60/34/42 80/4/43
f 60/34/42 59/35/44 79/8/45 80/4/43
f 59/35/44 58/35/46 78/9/47 79/8/45
f 58/35/46 57/36/48 77/37/49 78/9/47
f 57/36/48 56/38/50 76/39/51 77/37/49
f 56/38/50 55/40/52 75/41/53 76/39/51
f 55/40/52 54/42/54 74/43/55 75/41/53
f 54/42/54 53/44/56 93/45/57 74/43/55
f 53/44/56 52/46/58 73/47/59 93/45/57
f 52/46/58 51/48/60 72/49/61 73/47/59
f 51/48/60 50/50/62 71/24/63 72/49/61
f 50/50/62 49/50/64 70/24/65 71/24/63
f 49/50/64 48/51/66 69/25/67 70/24/65
f 48/51/66 68/27/40 69/25/67
f 81/1/1 47/3/3 60/34/42
f 60/34/42 47/3/3 46/7/6 59/35/44
f 59/35/44 46/7/6 45/6/10 58/35/46
f 58/35/46 45/6/10 65/10/12 57/36/48
f 57/36/48 65/10/12 44/11/16 56/38/50
f 56/38/50 44/11/16 43/14/18 55/40/52
f 55/40/52 43/14/18 42/15/22 54/42/54
f 54/42/54 42/15/22 64/18/24 53/44/56
f 53/44/56 64/18/24 41/19/28 52/46/58
f 52/46/58 41/19/28 40/21/30 51/48/60
f 51/48/60 40/21/30 39/22/34 50/50/62
f 50/50/62 39/22/34 63/22/36 49/50/64
f 49/50/64 63/22/36 62/52/68 48/51/66
f 16/23/35 15/53/39 62/52/68 63/22/36
f 62/52/68 15/53/39 68/27/40
f 48/51/66 62/52/68 68/27/40
f 1/54/41 3/55/41 69/56/41 68/57/41
f 3/54/41 4/55/41 70/56/41 69/57/41
f 4/54/41 5/55/41 71/56/41 70/57/41
f 5/54/41 6/55/41 72/56/41 71/57/41
f 6/54/41 7/55/41 73/56/41 72/57/41
f 8/54/41 9/55/41 75/56/41 74/57/41
f 9/54/41 10/55/41 76/56/41 75/57/41
f 10/54/41 11/55/41 77/56/41 76/57/41
f 11/54/41 12/55/41 78/56/41 77/57/41
f 12/54/41 98/33/41 13/55/41 79/56/41 78/57/41
f 13/54/41 14/55/41 80/56/41 79/57/41
f 14/54/41 2/55/41 81/56/41 80/57/41
f 29/54/41 28/55/41 82/56/41 83/57/41
f 30/54/41 29/55/41 83/56/41 84/57/41
f 31/54/41 30/55/41 84/56/41 85/57/41
f 32/54/41 31/55/41 85/56/41 86/57/41
f 34/54/41 33/55/41 87/56/41 88/57/41
f 36/54/41 35/55/41 89/56/41 90/57/41
f 37/54/41 97/33/41 36/55/41 90/56/41 91/57/41
f 38/54/41 37/55/41 91/56/41 92/57/41
f 28/54/41 1/55/41 68/56/41 82/57/41
f 2/54/41 38/55/41 92/56/41 81/57/41
f 7/54/41 61/55/41 93/56/41 73/57/41
f 61/54/41 8/55/41 74/56/41 93/57/41
f 66/54/41 32/55/41 86/56/41 94/57/41
f 33/54/41 66/55/41 94/56/41 87/57/41
f 67/54/41 34/55/41 88/56/41 95/57/41
f 35/54/41 67/55/41 95/56/41 89/57/41
f 2/29/41 96/58/41 97/31/41 37/32/41 38/33/41
f 9/29/41 96/59/41 98/31/41 12/32/41 11/33/41 10/28/41
f 34/29/41 96/60/41 31/31/41 32/32/41 66/33/41 33/28/41
f 6/29/41 96/61/41 9/31/41 8/32/41 61/33/41 7/28/41
f 97/29/41 96/62/41 34/31/41 67/32/41 35/33/41 36/28/41
f 98/29/41 96/63/41 2/31/41 14/33/41 13/28/41
f 31/29/41 96/64/41 1/31/41 28/32/41 29/33/41 30/28/41
