# Blender 5.0.1
# www.blender.org
mtllib Watermelon.mtl
o Cube.008
v 0.000000 -0.000034 3.138918
v -0.026059 0.002247 3.112859
v -0.049894 0.007640 3.089024
v -0.072457 0.023826 3.066461
v -0.095338 0.053611 3.043580
v -0.113134 0.090255 3.025784
v -0.121715 0.127206 3.017203
v -0.128706 0.170463 3.010212
v -0.130295 0.205765 3.008623
v -0.128071 0.259230 3.010847
v -0.116630 0.303870 3.022288
v -0.097880 0.341596 3.041038
v -0.071186 0.376065 3.067732
v -0.039724 0.401873 3.099194
v -0.000000 0.409978 3.138918
v 0.026059 0.008753 3.112859
v 0.049894 0.014147 3.089024
v 0.060784 0.025851 3.078134
v 0.083665 0.053910 3.055253
v 0.101461 0.090753 3.037457
v 0.110042 0.127836 3.028876
v 0.117033 0.171162 3.021885
v 0.118622 0.206458 3.020296
v 0.116397 0.259810 3.022521
v 0.104957 0.304411 3.033961
v 0.086207 0.344575 3.052711
v 0.059512 0.372586 3.079406
v 0.039724 0.394217 3.099194
v 0.000000 0.003031 3.102065
v 0.000000 0.023826 3.036448
v 0.000000 0.053611 3.004090
v 0.000000 0.090255 2.978922
v 0.000000 0.170463 2.956900
v 0.000000 0.205765 2.954653
v 0.000000 0.259230 2.957799
v 0.000000 0.341596 3.000494
v 0.000000 0.376065 3.038246
v 0.000000 0.400591 3.082740
v 0.036853 0.003031 3.138918
v 0.070560 0.007640 3.138918
v 0.102469 0.023826 3.138918
v 0.134828 0.053611 3.138918
v 0.159996 0.090255 3.138918
v 0.182018 0.170463 3.138918
v 0.184265 0.205765 3.138918
v 0.181119 0.259230 3.138918
v 0.164940 0.303870 3.138918
v 0.138424 0.341596 3.138918
v 0.100672 0.376065 3.138918
v 0.056178 0.400591 3.138918
v -0.026059 0.008753 3.164977
v -0.049894 0.014147 3.188812
v -0.060784 0.025851 3.199702
v -0.083665 0.053910 3.222583
v -0.101461 0.090753 3.240379
v -0.110042 0.127836 3.248960
v -0.117033 0.171162 3.255951
v -0.118622 0.206458 3.257540
v -0.116397 0.259810 3.255315
v -0.104957 0.304411 3.243875
v -0.086207 0.344575 3.225125
v -0.059512 0.372586 3.198430
v -0.039724 0.394217 3.178642
v -0.036853 0.003031 3.138918
v -0.070560 0.007640 3.138918
v -0.102469 0.023826 3.138918
v -0.134828 0.053611 3.138918
v -0.159996 0.090255 3.138918
v -0.182018 0.170463 3.138918
v -0.184265 0.205765 3.138918
v -0.164940 0.303870 3.138918
v -0.138424 0.341596 3.138918
v -0.100672 0.376065 3.138918
v -0.056178 0.400591 3.138918
v 0.000000 0.023826 3.241387
v 0.000000 0.053611 3.273746
v 0.000000 0.090255 3.298914
v 0.000000 0.170463 3.320936
v 0.000000 0.205765 3.323183
v 0.000000 0.259230 3.320037
v 0.000000 0.341596 3.277342
v 0.000000 0.376065 3.239590
v 0.000000 0.400591 3.195096
v 0.026059 0.002247 3.164977
v 0.049894 0.007640 3.188812
v 0.072457 0.023826 3.211375
v 0.095338 0.053611 3.234256
v 0.113134 0.090255 3.252052
v 0.121715 0.127206 3.260633
v 0.128706 0.170463 3.267624
v 0.130295 0.205765 3.269213
v 0.128071 0.259230 3.266989
v 0.116630 0.303870 3.255548
v 0.097880 0.341596 3.236798
v 0.071186 0.376065 3.210104
v 0.039724 0.401873 3.178642
v 0.172131 0.127206 3.138918
v 0.000000 0.007640 3.068358
v 0.000000 0.127206 2.966787
v 0.000000 0.303870 2.973978
v 0.000000 0.003031 3.175771
v 0.000000 0.007640 3.209478
v 0.000000 0.127206 3.311049
v 0.000000 0.303870 3.303858
v -0.172131 0.127206 3.138918
v -0.181119 0.259230 3.138918
vn -0.0000 -1.0000 -0.0000
vn -0.0796 -0.9936 -0.0796
vn -0.2387 -0.9413 -0.2387
vn -0.4187 -0.8058 -0.4187
vn -0.5423 -0.6417 -0.5423
vn -0.6383 -0.4303 -0.6383
vn -0.6819 -0.2648 -0.6819
vn -0.7000 -0.1409 -0.7000
vn -0.7071 -0.0024 -0.7071
vn -0.6935 0.1952 -0.6935
vn -0.6318 0.4492 -0.6318
vn -0.5388 0.6477 -0.5388
vn -0.4269 0.7972 -0.4269
vn -0.2547 0.9329 -0.2547
vn -0.0000 1.0000 -0.0000
vn 0.1502 -0.9772 -0.1502
vn 0.3037 -0.9031 -0.3037
vn 0.4483 -0.7734 -0.4483
vn 0.5511 -0.6266 -0.5511
vn 0.6433 -0.4150 -0.6433
vn 0.6841 -0.2532 -0.6841
vn 0.7006 -0.1350 -0.7006
vn 0.7071 -0.0020 -0.7071
vn 0.6944 0.1891 -0.6944
vn 0.6383 0.4303 -0.6383
vn 0.5421 0.6421 -0.5421
vn 0.4456 0.7765 -0.4456
vn 0.3363 0.8797 -0.3363
vn 0.0904 -0.9902 -0.1063
vn 0.0658 -0.8071 -0.5867
vn 0.0603 -0.6525 -0.7554
vn 0.0588 -0.4369 -0.8976
vn 0.0561 -0.1438 -0.9880
vn 0.0558 -0.0025 -0.9984
vn 0.0547 0.1983 -0.9786
vn 0.0532 0.6585 -0.7507
vn 0.0626 0.8063 -0.5881
vn 0.0857 0.9246 -0.3712
vn 0.1063 -0.9902 -0.0904
vn 0.3359 -0.9393 -0.0704
vn 0.5867 -0.8071 -0.0658
vn 0.7554 -0.6525 -0.0603
vn 0.8976 -0.4369 -0.0588
vn 0.9880 -0.1438 -0.0561
vn 0.9984 -0.0025 -0.0558
vn 0.9786 0.1983 -0.0547
vn 0.8901 0.4526 -0.0542
vn 0.7507 0.6585 -0.0532
vn 0.5881 0.8063 -0.0626
vn 0.3712 0.9246 -0.0857
vn -0.1502 -0.9772 0.1502
vn -0.3037 -0.9031 0.3037
vn -0.4483 -0.7734 0.4483
vn -0.5511 -0.6266 0.5511
vn -0.6433 -0.4150 0.6433
vn -0.6841 -0.2532 0.6841
vn -0.7006 -0.1350 0.7006
vn -0.7071 -0.0020 0.7071
vn -0.6944 0.1891 0.6944
vn -0.6383 0.4303 0.6383
vn -0.5421 0.6421 0.5421
vn -0.4456 0.7765 0.4456
vn -0.3363 0.8797 0.3363
vn -0.1063 -0.9902 0.0904
vn -0.3359 -0.9393 0.0704
vn -0.5867 -0.8071 0.0658
vn -0.7554 -0.6525 0.0603
vn -0.8976 -0.4369 0.0588
vn -0.9880 -0.1438 0.0561
vn -0.9984 -0.0025 0.0558
vn -0.8901 0.4526 0.0542
vn -0.7507 0.6585 0.0532
vn -0.5881 0.8063 0.0626
vn -0.3712 0.9246 0.0857
vn -0.0658 -0.8071 0.5867
vn -0.0603 -0.6525 0.7554
vn -0.0588 -0.4369 0.8976
vn -0.0561 -0.1438 0.9880
vn -0.0558 -0.0025 0.9984
vn -0.0547 0.1983 0.9786
vn -0.0532 0.6585 0.7507
vn -0.0626 0.8063 0.5881
vn -0.0857 0.9246 0.3712
vn 0.0796 -0.9936 0.0796
vn 0.2387 -0.9413 0.2387
vn 0.4187 -0.8058 0.4187
vn 0.5423 -0.6417 0.5423
vn 0.6383 -0.4303 0.6383
vn 0.6819 -0.2648 0.6819
vn 0.7000 -0.1409 0.7000
vn 0.7071 -0.0024 0.7071
vn 0.6935 0.1952 0.6935
vn 0.6318 0.4492 0.6318
vn 0.5388 0.6477 0.5388
vn 0.4269 0.7972 0.4269
vn 0.2547 0.9329 0.2547
vn 0.9610 -0.2702 -0.0583
vn 0.0704 -0.9393 -0.3359
vn 0.0583 -0.2702 -0.9610
vn 0.0542 0.4526 -0.8901
vn -0.0904 -0.9902 0.1063
vn -0.0704 -0.9393 0.3359
vn -0.0583 -0.2702 0.9610
vn -0.0542 0.4526 0.8901
vn -0.9610 -0.2702 0.0583
vn -0.9786 0.1983 0.0547
vt 0.056099 0.928981
vt 0.062969 0.928126
vt 0.059633 0.932387
vt 0.054274 0.934758
vt 0.050117 0.933711
vt 0.073013 0.923983
vt 0.061531 0.933577
vt 0.053458 0.938417
vt 0.042312 0.939602
vt 0.041871 0.937661
vt 0.046001 0.948170
vt 0.060026 0.950451
vt 0.053186 0.936130
vt 0.037154 0.941675
vt 0.047903 0.944382
vt 0.057450 0.837383
vt 0.057662 0.832317
vt 0.057838 0.825794
vt 0.060225 0.942233
vt 0.072503 0.949578
vt 0.063145 0.932905
vt 0.084245 0.945093
vt 0.072715 0.927532
vt 0.072296 0.936785
vt 0.057977 0.817238
vt 0.058060 0.806472
vt 0.084220 0.926649
vt 0.095011 0.936089
vt 0.082070 0.919394
vt 0.101207 0.929220
vt 0.087718 0.913558
vt 0.091304 0.919086
vt 0.058091 0.799372
vt 0.058090 0.790838
vt 0.098594 0.908535
vt 0.107323 0.919288
vt 0.093863 0.905549
vt 0.111767 0.910076
vt 0.066437 0.817869
vt 0.104011 0.899046
vt 0.058070 0.783809
vt 0.057986 0.777354
vt 0.061338 0.791287
vt 0.113533 0.898186
vt 0.057419 0.800195
vt 0.066775 0.780393
vt 0.045740 0.785141
vt 0.045189 0.777691
vt 0.057865 0.772694
vt 0.057739 0.770684
vt 0.067300 0.772369
vt 0.047835 0.772498
vt 0.066048 0.773560
vt 0.064234 0.771710
vt 0.062032 0.772176
vt 0.062462 0.772013
vt 0.057602 0.770773
vt 0.057461 0.771180
vt 0.056036 0.928895
vt 0.059234 0.932807
vt 0.062803 0.928354
vt 0.053783 0.935023
vt 0.049992 0.933540
vt 0.061091 0.934306
vt 0.073032 0.924416
vt 0.052629 0.939120
vt 0.042156 0.939388
vt 0.056661 0.823858
vt 0.056733 0.830104
vt 0.043278 0.796673
vt 0.058422 0.780475
vt 0.058556 0.786720
vt 0.057471 0.813009
vt 0.110358 0.903531
vt 0.068222 0.789043
vt 0.067149 0.833651
vt 0.108127 0.915621
vt 0.058651 0.792817
vt 0.056627 0.817762
vt 0.056628 0.811107
vt 0.058716 0.799472
vt 0.087211 0.912821
vt 0.102744 0.926602
vt 0.078617 0.921463
vt 0.093405 0.936286
vt 0.058748 0.807069
vt 0.056671 0.803510
vt 0.056711 0.798554
vt 0.058757 0.812026
vt 0.072524 0.926596
vt 0.086493 0.941752
vt 0.064257 0.932041
vt 0.076759 0.946974
vt 0.058750 0.818114
vt 0.056779 0.792467
vt 0.056848 0.787190
vt 0.058733 0.823392
vt 0.056696 0.936305
vt 0.067797 0.950673
vt 0.047443 0.939080
vt 0.056491 0.951696
vt 0.058679 0.828865
vt 0.056955 0.781717
vt 0.057083 0.776919
vt 0.058599 0.833665
vt 0.038424 0.939707
vt 0.045065 0.950134
vt 0.034283 0.939750
vt 0.036129 0.946391
vt 0.058510 0.836662
vt 0.057202 0.773922
vt 0.057322 0.772510
vt 0.058403 0.838076
vt 0.063007 0.837418
vt 0.058278 0.839406
vt 0.062617 0.923957
vt 0.073116 0.915857
vt 0.053063 0.780374
vt 0.107918 0.893276
vt 0.057472 0.778268
vt 0.057634 0.773200
vt 0.104885 0.904824
vt 0.057360 0.784793
vt 0.098377 0.916268
vt 0.057306 0.793350
vt 0.087595 0.927234
vt 0.057330 0.804117
vt 0.079779 0.933648
vt 0.057369 0.811218
vt 0.069153 0.940100
vt 0.057454 0.819752
vt 0.059687 0.944818
vt 0.057544 0.826781
vt 0.048622 0.946963
vt 0.057692 0.833236
vt 0.038344 0.946499
vt 0.057859 0.837895
vt 0.031135 0.943747
vt 0.058005 0.839905
vt 0.063057 0.839665
vt 0.058141 0.839815
vt 0.062629 0.923973
vt 0.073195 0.915966
vt 0.064993 0.838907
s 1
usemtl Material
f 15/1/15 50/2/50 28/3/28
f 15/1/15 28/3/28 38/4/38
f 15/1/15 38/4/38 14/5/14
f 28/3/28 50/2/50 49/6/49 27/7/27
f 28/3/28 27/7/27 37/8/37 38/4/38
f 14/5/14 38/4/38 37/8/37 13/9/13
f 13/10/13 37/11/37 36/12/36 12/13/12
f 27/14/27 26/15/26 36/12/36 37/11/37
f 27/14/27 49/16/49 48/17/48 26/15/26
f 26/15/26 48/17/48 47/18/47 25/19/25
f 26/15/26 25/19/25 100/20/100 36/12/36
f 12/13/12 36/12/36 100/20/100 11/21/11
f 11/21/11 100/20/100 35/22/35 10/23/10
f 25/19/25 24/24/24 35/22/35 100/20/100
f 25/19/25 47/18/47 46/25/46 24/24/24
f 24/24/24 46/25/46 45/26/45 23/27/23
f 24/24/24 23/27/23 34/28/34 35/22/35
f 10/23/10 35/22/35 34/28/34 9/29/9
f 9/29/9 34/28/34 33/30/33 8/31/8
f 23/27/23 22/32/22 33/30/33 34/28/34
f 23/27/23 45/26/45 44/33/44 22/32/22
f 22/32/22 44/33/44 97/34/97 21/35/21
f 22/32/22 21/35/21 99/36/99 33/30/33
f 8/31/8 33/30/33 99/36/99 7/37/7
f 7/37/7 99/36/99 32/38/32 6/39/6
f 21/35/21 20/40/20 32/38/32 99/36/99
f 21/35/21 97/34/97 43/41/43 20/40/20
f 20/40/20 43/41/43 42/42/42 19/43/19
f 20/40/20 19/43/19 31/44/31 32/38/32
f 6/39/6 32/38/32 31/44/31 5/45/5
f 5/45/5 31/44/31 30/46/30 4/47/4
f 19/43/19 18/48/18 30/46/30 31/44/31
f 19/43/19 42/42/42 41/49/41 18/48/18
f 18/48/18 41/49/41 40/50/40 17/51/17
f 18/48/18 17/51/17 98/52/98 30/46/30
f 4/47/4 30/46/30 98/52/98 3/53/3
f 3/53/3 98/52/98 29/54/29 2/55/2
f 17/51/17 16/56/16 29/54/29 98/52/98
f 17/51/17 40/50/40 39/57/39 16/56/16
f 39/57/39 1/58/1 16/56/16
f 29/54/29 16/56/16 1/58/1
f 2/55/2 29/54/29 1/58/1
f 15/59/15 63/60/63 83/61/83
f 15/59/15 74/62/74 63/60/63
f 15/59/15 14/63/14 74/62/74
f 63/60/63 62/64/62 82/65/82 83/61/83
f 63/60/63 74/62/74 73/66/73 62/64/62
f 14/63/14 13/67/13 73/66/73 74/62/74
f 13/10/13 12/13/12 72/68/72 73/69/73
f 62/70/62 73/71/73 72/72/72 61/73/61
f 62/70/62 61/73/61 81/74/81 82/75/82
f 61/73/61 60/76/60 104/77/104 81/74/81
f 61/73/61 72/72/72 71/78/71 60/76/60
f 12/13/12 11/21/11 71/79/71 72/68/72
f 11/21/11 10/23/10 106/80/106 71/79/71
f 60/76/60 71/78/71 106/81/106 59/82/59
f 60/76/60 59/82/59 80/83/80 104/77/104
f 59/82/59 58/84/58 79/85/79 80/83/80
f 59/82/59 106/81/106 70/86/70 58/84/58
f 10/23/10 9/29/9 70/87/70 106/80/106
f 9/29/9 8/31/8 69/88/69 70/87/70
f 58/84/58 70/86/70 69/89/69 57/90/57
f 58/84/58 57/90/57 78/91/78 79/85/79
f 57/90/57 56/92/56 103/93/103 78/91/78
f 57/90/57 69/89/69 105/94/105 56/92/56
f 8/31/8 7/37/7 105/95/105 69/88/69
f 7/37/7 6/39/6 68/96/68 105/95/105
f 56/92/56 105/94/105 68/97/68 55/98/55
f 56/92/56 55/98/55 77/99/77 103/93/103
f 55/98/55 54/100/54 76/101/76 77/99/77
f 55/98/55 68/97/68 67/102/67 54/100/54
f 6/39/6 5/45/5 67/103/67 68/96/68
f 5/45/5 4/47/4 66/104/66 67/103/67
f 54/100/54 67/102/67 66/105/66 53/106/53
f 54/100/54 53/106/53 75/107/75 76/101/76
f 53/106/53 52/108/52 102/109/102 75/107/75
f 53/106/53 66/105/66 65/110/65 52/108/52
f 4/47/4 3/53/3 65/111/65 66/104/66
f 3/53/3 2/55/2 64/112/64 65/111/65
f 52/108/52 65/110/65 64/113/64 51/114/51
f 64/113/64 1/115/1 51/114/51
f 2/55/2 1/58/1 64/112/64
f 15/1/15 96/116/96 50/2/50
f 96/116/96 95/117/95 49/6/49 50/2/50
f 95/118/95 94/119/94 48/120/48 49/121/49
f 94/119/94 93/122/93 47/123/47 48/120/48
f 93/122/93 92/124/92 46/125/46 47/123/47
f 92/124/92 91/126/91 45/127/45 46/125/46
f 91/126/91 90/128/90 44/129/44 45/127/45
f 90/128/90 89/130/89 97/131/97 44/129/44
f 89/130/89 88/132/88 43/133/43 97/131/97
f 88/132/88 87/134/87 42/135/42 43/133/43
f 87/134/87 86/136/86 41/137/41 42/135/42
f 86/136/86 85/138/85 40/139/40 41/137/41
f 85/138/85 84/140/84 39/141/39 40/139/40
f 84/140/84 1/115/1 39/141/39
f 15/59/15 83/61/83 96/142/96
f 96/142/96 83/61/83 82/65/82 95/143/95
f 95/118/95 82/75/82 81/74/81 94/119/94
f 94/119/94 81/74/81 104/77/104 93/122/93
f 93/122/93 104/77/104 80/83/80 92/124/92
f 92/124/92 80/83/80 79/85/79 91/126/91
f 91/126/91 79/85/79 78/91/78 90/128/90
f 90/128/90 78/91/78 103/93/103 89/130/89
f 89/130/89 103/93/103 77/99/77 88/132/88
f 88/132/88 77/99/77 76/101/76 87/134/87
f 87/134/87 76/101/76 75/107/75 86/136/86
f 86/136/86 75/107/75 102/109/102 85/138/85
f 85/138/85 102/109/102 101/144/101 84/140/84
f 52/108/52 51/114/51 101/144/101 102/109/102
f 101/144/101 51/114/51 1/115/1
f 84/140/84 101/144/101 1/115/1
